<svg width="154" height="168" viewBox="0 0 154 168" fill="none" xmlns="http://www.w3.org/2000/svg">
<path d="M77 17.6756C94.8685 17.698 112.092 24.3562 125.329 36.3587C138.566 48.3612 146.874 64.8523 148.64 82.6333C150.406 100.414 145.506 118.217 134.889 132.59C124.272 146.962 108.695 156.879 91.1802 160.416C73.6654 163.954 55.461 160.86 40.0981 151.735C24.7353 142.61 13.3092 128.104 8.03609 111.031C2.76303 93.9586 4.01892 75.536 11.5602 59.3368C19.1014 43.1377 32.3904 30.3169 48.8495 23.3612C57.7549 19.5912 67.3295 17.6574 77 17.6756V17.6756ZM77 15C35.5786 15 2 48.5786 2 90C2 131.421 35.5786 165 77 165C118.421 165 152 131.421 152 90C152 48.5786 118.421 15 77 15Z" fill="#151515"/>
<path d="M77 23.6602C93.3943 23.6816 109.196 29.7913 121.341 40.8042C133.485 51.8172 141.106 66.9483 142.726 83.2624C144.345 99.5765 139.848 115.911 130.105 129.096C120.363 142.282 106.071 151.379 90.0005 154.623C73.9304 157.867 57.2282 155.027 43.1338 146.653C29.0394 138.279 18.5575 124.969 13.7215 109.304C8.88551 93.6393 10.0401 76.7367 16.9613 61.875C23.8825 47.0134 36.0769 35.2521 51.179 28.8726C59.3477 25.4158 68.13 23.6429 77 23.6602V23.6602ZM77 21C38.892 21 8 51.892 8 90C8 128.108 38.892 159 77 159C115.108 159 146 128.108 146 90C146 51.892 115.108 21 77 21Z" fill="#151515"/>
<path d="M69.4326 138.941L69.5011 138.911V138.728C69.5011 136.195 69.5011 133.661 69.5011 131.126C69.4984 130.919 69.4306 130.719 69.3074 130.554C65.7219 125.261 62.1371 119.96 58.5527 114.653C58.4465 114.491 58.2971 114.363 58.1218 114.284C53.5209 112.144 48.9216 110.002 44.324 107.856C44.2188 107.806 44.1086 107.766 44 107.721C44.061 107.837 44.1486 107.938 44.2556 108.014C47.9568 110.995 51.6575 113.978 55.3576 116.962C55.5427 117.116 55.7027 117.299 55.8319 117.503C60.3015 124.553 64.7688 131.604 69.2339 138.656C69.2957 138.754 69.3658 138.847 69.4326 138.941ZM47.5292 87C47.5659 87.1459 47.5793 87.2163 47.601 87.2834C48.3571 89.7248 49.1126 92.1663 49.8675 94.6078C49.8963 94.6991 49.9439 94.7833 50.0072 94.8549C50.0705 94.9266 50.1481 94.9841 50.235 95.0236C53.561 96.886 56.8847 98.7534 60.2063 100.626C60.3733 100.723 60.5628 100.774 60.7558 100.773C63.5595 100.773 66.3633 100.773 69.1671 100.773C69.2673 100.773 69.3692 100.758 69.4711 100.75L69.5312 100.653C69.4192 100.582 69.3121 100.504 69.2105 100.42C67.7206 99.0044 66.2314 97.5886 64.7426 96.1722C64.5923 96.0317 64.4237 95.9121 64.2416 95.8167C58.8122 92.9438 53.3806 90.0747 47.9468 87.2096C47.8332 87.1459 47.7146 87.0905 47.5292 87ZM107.992 87.0906L107.937 87.0369C107.84 87.0838 107.739 87.1274 107.644 87.1777C102.179 90.0641 96.7142 92.9505 91.2492 95.8369C91.0991 95.9156 90.9598 96.0137 90.835 96.1286C89.3084 97.5763 87.7846 99.0296 86.2636 100.488C86.1901 100.559 86.1249 100.639 85.9997 100.778H86.3554C89.1714 100.778 91.9875 100.778 94.8035 100.778C94.9708 100.778 95.1354 100.736 95.2828 100.656C98.6311 98.7825 101.978 96.905 105.324 95.0236C105.409 94.9806 105.485 94.9202 105.545 94.8463C105.605 94.7724 105.65 94.6865 105.675 94.5943C106.291 92.5822 106.913 90.57 107.542 88.5578C107.701 88.0614 107.85 87.5685 108 87.0906H107.992ZM68.4689 150C68.4856 149.909 68.4973 149.854 68.5057 149.797L68.7462 147.953C68.9834 146.13 69.2189 144.307 69.466 142.486C69.4853 142.399 69.4812 142.309 69.4542 142.224C69.4272 142.139 69.3783 142.063 69.3124 142.003C67.3081 140.001 65.3072 137.996 63.3096 135.987C63.2435 135.931 63.1731 135.879 63.0991 135.834C63.0908 135.952 63.0824 136.024 63.0824 136.094C63.0824 139.358 63.0824 142.623 63.0824 145.888C63.0781 145.978 63.0977 146.067 63.1391 146.146C63.1805 146.225 63.2422 146.292 63.3179 146.339C64.9492 147.501 66.5788 148.667 68.2067 149.837C68.2785 149.891 68.3603 149.935 68.4689 150Z" fill="#03011B"/>
<path d="M51.7076 74.5704C51.8392 73.4842 51.9592 72.4764 52.0825 71.4686C52.2057 70.4607 52.3074 69.4413 52.4673 68.3784L76.6802 86C76.6898 85.9192 76.6677 85.8379 76.6186 85.7731C68.0822 73.1432 59.5458 60.515 51.0094 47.8885C51.0053 47.8843 51.0004 47.8809 50.995 47.8786C50.9895 47.8763 50.9837 47.8751 50.9778 47.8752C50.9678 47.8752 50.9594 47.8869 50.9494 47.8935C50.9394 47.9002 50.9361 47.9136 50.9311 47.9236C50.9296 47.9352 50.9296 47.947 50.9311 47.9586V56.6534C50.9311 56.6902 50.9311 56.7269 50.9311 56.7619C50.9279 56.7858 50.9224 56.8092 50.9145 56.832C50.9113 56.843 50.9042 56.8526 50.8945 56.8587C50.8712 56.8693 50.8465 56.8766 50.8212 56.8804C50.7828 56.832 50.7328 56.7636 50.6779 56.7018C49.9881 55.921 49.3083 55.1301 48.6018 54.3659C48.4872 54.2458 48.3985 54.1034 48.3411 53.9475C48.2838 53.7917 48.2591 53.6257 48.2686 53.4598C48.2786 46.7778 48.2786 40.0964 48.2686 33.4155C48.2686 33.2803 48.2686 33.1435 48.2686 33.0084L48.1919 33L32 62.5034L51.7076 74.5704ZM102.544 68.3684C102.798 70.4591 103.044 72.483 103.294 74.5704L123 62.5034C117.627 52.699 112.268 42.9229 106.921 33.1752C106.898 33.1337 106.871 33.0941 106.841 33.0567C106.838 33.0523 106.833 33.0488 106.828 33.0465C106.823 33.0442 106.817 33.0431 106.811 33.0434C106.792 33.0476 106.773 33.0538 106.755 33.0617V53.4548C106.755 53.5516 106.755 53.6484 106.755 53.7452C106.76 53.8171 106.749 53.8892 106.723 53.9566C106.698 54.024 106.658 54.0851 106.606 54.1356C105.833 55.0049 105.065 55.8792 104.294 56.7486C104.237 56.8014 104.177 56.8494 104.112 56.892C104.101 56.8714 104.092 56.8496 104.086 56.827L104.076 47.9836C104.075 47.9594 104.071 47.9354 104.066 47.9119C104.063 47.9009 104.057 47.8914 104.047 47.8852C104.039 47.8852 104.026 47.8752 104.001 47.8652C103.947 47.9386 103.887 48.012 103.834 48.0904L78.2864 85.9299C78.284 85.9354 78.2827 85.9414 78.2827 85.9474C78.2827 85.9535 78.284 85.9594 78.2864 85.965C78.2864 85.965 78.2998 85.98 78.3181 86L102.544 68.3684ZM77.4717 82.6462C77.51 82.6279 77.58 82.6178 77.6 82.5811C77.6733 82.4476 77.7099 82.2891 77.7949 82.1657C86.5701 69.4057 95.3498 56.6479 104.134 43.8923C104.275 43.6988 104.351 43.4647 104.349 43.2249C104.342 39.9746 104.342 36.7242 104.349 33.4739V33.035L103.986 33.327L88.5451 46.1966L83.6515 50.2629C83.501 50.3636 83.3949 50.5183 83.3549 50.695C82.9017 53.1612 82.4369 55.6256 81.9753 58.0901C81.24 62.019 80.5058 65.9484 79.7727 69.8784L77.7533 80.6673C77.6816 81.0461 77.6033 81.4248 77.5283 81.8053C77.4577 81.6996 77.4121 81.5792 77.395 81.4532C76.9029 78.8224 76.4103 76.1911 75.9171 73.5593C75.4728 71.1788 75.0252 68.7978 74.5742 66.4162C74.121 63.9979 73.6689 61.5807 73.2179 59.1646C72.7014 56.4015 72.1799 53.64 71.6717 50.8769C71.635 50.614 71.499 50.3751 71.2918 50.2095C67.7373 47.2595 64.1906 44.3056 60.6516 41.3478L50.9878 33.2953C50.8995 33.2219 50.8028 33.1602 50.6762 33.0667C50.6762 33.1919 50.6595 33.262 50.6595 33.3304C50.6595 36.6675 50.6595 40.0046 50.6595 43.3417C50.6601 43.5221 50.7185 43.6976 50.8261 43.8423L70.6003 72.5631C72.8064 75.769 75.0113 78.9743 77.2151 82.179C77.3067 82.3125 77.3734 82.466 77.4717 82.6462V82.6462Z" fill="#03011B"/>
<path d="M26.0166 97.3359C26.2174 97.0877 26.1742 96.7731 26.2141 96.4858C26.5842 93.8829 26.9393 91.2801 27.2978 88.6755C27.5998 86.4653 27.8952 84.2739 28.1989 82.0722C28.5972 79.1866 28.9977 76.302 29.4004 73.4186C29.7002 71.2436 29.9973 69.0675 30.2916 66.8902C30.4122 66.0095 30.5344 65.1294 30.6583 64.2499C30.678 64.1686 30.7023 64.0885 30.7314 64.0102L54.6737 78.2912V73.3421L77.5755 89.0206C85.1884 83.8069 92.7919 78.6 100.386 73.3999L100.442 73.4322C100.451 73.4385 100.458 73.4474 100.462 73.4577C100.469 73.4815 100.473 73.5061 100.474 73.5309L100.484 78.1637C100.484 78.1756 100.494 78.1875 100.522 78.2487C100.642 78.1841 100.763 78.1246 100.879 78.0566L109.192 73.0956L124.005 64.255L124.445 64C124.523 64.5406 124.594 65.0286 124.66 65.5148C124.941 67.5447 125.218 69.5741 125.49 71.6029C125.742 73.4254 125.993 75.2468 126.243 77.0671L127.005 82.6061C127.311 84.8298 127.616 87.0547 127.923 89.2807C128.195 91.2483 128.467 93.2159 128.738 95.1835C128.809 95.7089 128.866 96.2376 128.934 96.7629C128.949 96.8324 128.971 96.9002 129 96.9652V97.4107C128.408 97.6827 127.817 97.9615 127.219 98.225L116.598 102.919C116.49 102.967 116.381 103.007 116.215 103.075C117.045 94.835 117.858 86.6524 118.681 78.4119C118.498 78.502 118.379 78.5564 118.264 78.6176C108.941 83.6386 99.6177 88.6608 90.2943 93.684C90.0396 93.8221 89.8012 93.9898 89.584 94.1839C85.6841 97.6861 81.788 101.192 77.8958 104.701C77.7863 104.798 77.6817 104.898 77.5639 105C73.5445 101.381 69.5234 97.7626 65.5006 94.1448C65.311 93.9749 65.1027 93.8283 64.8799 93.7078C55.5356 88.6721 46.1901 83.6386 36.8435 78.6074C36.7306 78.5462 36.6112 78.4918 36.4452 78.4102C37.275 86.6507 38.0882 94.8333 38.913 103.077C38.7072 102.992 38.5628 102.936 38.4151 102.875L26.1045 97.4243C26.0705 97.4146 26.0353 97.41 26 97.4107L26.0166 97.3359Z" fill="#151515"/>
<path d="M77.9958 154.995C77.8658 154.907 77.7425 154.809 77.6075 154.734C76.0524 153.865 74.4972 152.999 72.942 152.134C72.8153 152.065 72.6904 151.991 72.5421 151.906V151.442C72.5421 144.489 72.5421 137.534 72.5421 130.58C72.544 130.304 72.4583 130.035 72.2971 129.811C68.438 124.14 64.5845 118.466 60.7365 112.79C60.5954 112.581 60.3995 112.414 60.17 112.308C54.2047 109.413 48.24 106.519 42.2759 103.623C42.1399 103.57 42.0221 103.479 41.9365 103.361C41.8508 103.243 41.8009 103.103 41.7927 102.957C41.5544 101.149 41.2928 99.343 41.0345 97.5358C40.7302 95.3714 40.4247 93.2081 40.1181 91.0459C39.8648 89.2503 39.6049 87.4564 39.3499 85.6609C39.2311 84.8244 39.1144 83.9868 39 83.1481C39 83.1039 39.0044 83.0599 39.0133 83.0166C39.0983 83.0516 39.18 83.0732 39.2466 83.1098C41.0095 84.0467 42.7691 84.9886 44.537 85.9188C44.6209 85.9635 44.6931 86.027 44.7481 86.1044C44.803 86.1819 44.8392 86.271 44.8536 86.3648C45.6868 89.6181 46.5432 92.868 47.373 96.123C47.4049 96.278 47.474 96.4229 47.5744 96.5452C47.6749 96.6676 47.8036 96.7637 47.9496 96.8252C52.1552 98.912 56.3559 101.008 60.5516 103.112C60.7448 103.21 60.9565 103.267 61.1731 103.279C62.575 103.364 63.9763 103.455 65.3771 103.551L70.3759 103.884C70.8591 103.916 71.3407 103.956 71.8256 103.969C72.0545 103.972 72.2734 104.064 72.4354 104.225C74.1817 105.831 75.9318 107.432 77.6859 109.028C77.7825 109.118 77.8841 109.194 78.0024 109.308C78.1024 109.224 78.1941 109.153 78.2807 109.073C80.0503 107.457 81.8182 105.839 83.5845 104.22C83.7494 104.064 83.9667 103.973 84.1943 103.967C85.8373 103.869 87.4802 103.754 89.1231 103.646L93.2189 103.383C93.7621 103.348 94.3053 103.299 94.8485 103.272C95.0651 103.261 95.277 103.204 95.47 103.105L106.087 97.8004C106.814 97.4393 107.537 97.0732 108.265 96.7187C108.347 96.6837 108.42 96.6291 108.476 96.5598C108.532 96.4905 108.57 96.4085 108.587 96.321C109.42 93.0561 110.28 89.7945 111.115 86.5295C111.145 86.3734 111.212 86.2267 111.31 86.1012C111.408 85.9757 111.534 85.875 111.678 85.8073C113.331 84.947 114.97 84.0617 116.615 83.1864C116.73 83.1248 116.85 83.0716 116.995 83C117.002 83.1147 117.002 83.2297 116.995 83.3445C116.692 85.4745 116.388 87.604 116.083 89.7329C115.855 91.3471 115.634 92.9645 115.405 94.5804C115.153 96.3632 114.9 98.146 114.647 99.9287C114.495 100.992 114.334 102.055 114.199 103.122C114.192 103.222 114.156 103.318 114.095 103.397C114.034 103.476 113.951 103.536 113.856 103.568C112.013 104.456 110.173 105.348 108.337 106.246C104.158 108.276 99.9784 110.306 95.7982 112.336C95.5938 112.436 95.4208 112.59 95.2984 112.782C91.4415 118.467 87.5802 124.15 83.7144 129.831C83.5571 130.058 83.4765 130.329 83.4845 130.604C83.4912 137.498 83.4912 144.392 83.4845 151.286C83.4778 151.383 83.4778 151.48 83.4845 151.577C83.5228 151.83 83.4078 151.966 83.1896 152.086C81.6099 152.955 80.0342 153.831 78.4623 154.715C78.319 154.795 78.1907 154.905 78.0541 155L77.9958 154.995Z" fill="#151515"/>
<path d="M68.927 139C68.8607 138.906 68.7911 138.813 68.7297 138.716C64.296 131.683 59.8612 124.652 55.4253 117.621C55.297 117.417 55.1382 117.235 54.9544 117.08C51.2834 114.102 43.8966 107.95 44.0011 108C48.5663 110.137 53.1322 112.274 57.6985 114.41C57.8726 114.49 58.0208 114.617 58.1263 114.778C61.6845 120.065 65.245 125.351 68.8077 130.636C68.9299 130.8 68.9973 131 69 131.206C68.9934 133.732 68.9934 136.259 69 138.788V138.97L68.927 139Z" fill="#9B232E"/>
<path d="M44 108L62.0712 141.343L66.439 146L69 138.64V130.379L58.156 114.309L44 108Z" fill="#151515"/>
<path d="M66.3987 146C66.3072 145.913 66.2322 145.852 66.174 145.784C64.8331 144.294 63.4927 142.804 62.1529 141.315C62.0883 141.254 62.0415 141.176 62.0178 141.089C61.994 141.003 61.9941 140.912 62.018 140.826C62.7162 137.635 63.4089 134.444 64.096 131.252C64.111 131.181 64.136 131.114 64.1676 131C64.2273 131.061 64.2829 131.126 64.3341 131.195C65.8593 133.584 67.3833 135.973 68.9063 138.362C68.9577 138.435 68.9892 138.519 68.9977 138.608C69.0062 138.696 68.9913 138.785 68.9545 138.866C68.3285 140.594 67.7141 142.326 67.0964 144.055C66.8866 144.641 66.6801 145.23 66.4703 145.809C66.4587 145.864 66.4337 145.913 66.3987 146Z" fill="#151515"/>
<path d="M51.8476 74.5708L32 62.5041L48.2885 33L48.3657 33.0083C48.3657 33.1435 48.3657 33.2803 48.3657 33.4155C48.3657 40.0961 48.3657 46.7774 48.3657 53.4592C48.3562 53.625 48.3811 53.791 48.4388 53.9469C48.4966 54.1027 48.5859 54.2451 48.7013 54.3652C49.4128 55.131 50.0974 55.9219 50.7921 56.7011C50.8475 56.7628 50.8979 56.8312 50.9365 56.8796C50.962 56.8759 50.9868 56.8686 51.0103 56.8579C51.0201 56.8518 51.0272 56.8423 51.0304 56.8312C51.0384 56.8085 51.044 56.785 51.0472 56.7612C51.0472 56.7261 51.0472 56.6894 51.0472 56.6527V47.9581C51.0457 47.9465 51.0457 47.9347 51.0472 47.9231C51.0472 47.9131 51.0606 47.9031 51.0657 47.8931C51.0707 47.883 51.0841 47.8764 51.0942 47.8747C51.1001 47.8746 51.106 47.8758 51.1115 47.8781C51.117 47.8804 51.122 47.8838 51.1261 47.8881C59.7421 60.5164 68.3454 73.1447 76.9357 85.7731C76.9852 85.8379 77.0075 85.9192 76.9978 86L52.6128 68.3789C52.445 69.4418 52.351 70.4579 52.2252 71.469C52.0993 72.4801 51.9802 73.4846 51.8476 74.5708Z" fill="#151515"/>
<path d="M102.413 68.3539L78.0356 86C78.0171 85.98 78.0071 85.9733 78.0037 85.9649C78.0013 85.9594 78 85.9534 78 85.9474C78 85.9414 78.0013 85.9354 78.0037 85.9299L103.713 48.0627C103.766 47.9842 103.827 47.9108 103.88 47.8373C103.906 47.8473 103.919 47.849 103.927 47.8573C103.937 47.8635 103.943 47.8731 103.946 47.884C103.952 47.9075 103.955 47.9316 103.956 47.9559L103.966 56.8064C103.972 56.8291 103.981 56.8509 103.993 56.8716C104.058 56.8289 104.119 56.7808 104.176 56.728C104.952 55.8579 105.725 54.9829 106.503 54.1128C106.554 54.0623 106.595 54.0012 106.62 53.9337C106.646 53.8663 106.657 53.7941 106.652 53.7221C106.644 53.6252 106.652 53.5284 106.652 53.4315V33.0184C106.67 33.0105 106.689 33.0043 106.709 33C106.715 32.9998 106.72 33.0008 106.726 33.0032C106.731 33.0055 106.736 33.009 106.739 33.0134C106.769 33.0508 106.796 33.0904 106.82 33.132C112.206 42.9021 117.6 52.6862 123 62.4842L103.17 74.561C102.913 72.472 102.668 70.4397 102.413 68.3539Z" fill="#151515"/>
<path d="M77.9456 82C77.8468 81.822 77.7781 81.6704 77.6877 81.5386C75.4739 78.3712 73.2579 75.2055 71.0396 72.0415L51.1758 43.677C51.0677 43.5341 51.009 43.3608 51.0084 43.1827C51.0151 39.8868 51.0151 36.5909 51.0084 33.295C51.0084 33.2274 51.0167 33.1582 51.0251 33.0346C51.1524 33.1269 51.2495 33.1879 51.3383 33.2604L61.0508 41.2134C64.6143 44.1324 68.1789 47.0498 71.7446 49.9656C71.9529 50.1292 72.0895 50.3651 72.1264 50.6248C72.6288 53.3538 73.1613 56.0811 73.6804 58.8101C74.1348 61.1985 74.5892 63.5859 75.0435 65.9721C75.4901 68.3232 75.94 70.6748 76.3932 73.0269C76.8912 75.6252 77.3863 78.224 77.8786 80.8234C77.8957 80.9478 77.9416 81.0667 78.0126 81.1711C78.0879 80.7953 78.1666 80.4213 78.2386 80.0472L80.2682 69.3916C81.0073 65.5101 81.7452 61.6292 82.482 57.7488C82.9459 55.3148 83.4131 52.8808 83.8686 50.4451C83.9058 50.2715 84.0088 50.1183 84.1566 50.0167L89.0664 45.9941L104.586 33.2884L104.951 33V33.4334C104.951 36.6436 104.951 39.8538 104.951 43.064C104.953 43.3009 104.878 43.532 104.735 43.7232C95.9082 56.3212 87.0843 68.9214 78.2638 81.5237C78.1784 81.6457 78.1415 81.8022 78.0678 81.9341C78.0544 81.972 77.9841 81.9868 77.9456 82ZM51 33.0428L77.9205 54.8946L105 33.0428V43.972L77.9205 81.9868L51 43.6655V33.0428Z" fill="#151515"/>
<path d="M72 71.0221L73 71.8785L72.6752 72L72.0342 71L72 71.0221Z" fill="#03011B"/>
<path d="M111 108L92.9276 141.343L88.5595 146L86 138.64V130.379L96.8431 114.309L111 108Z" fill="#151515"/>
</svg>
