<svg width="154" height="168" viewBox="0 0 154 168" fill="none" xmlns="http://www.w3.org/2000/svg">
<g clip-path="url(#clip0_8_511)">
<path d="M77.6915 170.308C58.0543 170.354 39.0998 163.078 24.5045 149.891C9.90932 136.705 0.713832 118.547 -1.29823 98.9408C-3.31028 79.3345 2.00452 59.6772 13.6152 43.7819C25.226 27.8865 42.3049 16.8862 61.5393 12.9147C80.7736 8.94317 100.792 12.2836 117.712 22.288C134.632 32.2924 147.247 48.2477 153.109 67.0588C158.972 85.8699 157.665 106.196 149.442 124.094C141.219 141.993 126.665 156.187 108.605 163.925C98.8333 168.118 88.3189 170.289 77.6915 170.308Z" fill="#03011B"/>
<path d="M77 15.5229C92.0206 15.4984 106.703 19.9857 119.146 28.404C131.266 36.5911 140.753 48.1187 146.459 61.5908C151.348 73.1497 153.273 85.7478 152.059 98.2405C150.845 110.733 146.531 122.724 139.509 133.125C131.328 145.252 119.807 154.745 106.343 160.454C94.7913 165.347 82.201 167.273 69.716 166.059C57.2311 164.844 45.2473 160.527 34.8537 153.5C22.7331 145.314 13.2453 133.786 7.54024 120.313C2.65069 108.754 0.725278 96.1562 1.93899 83.6635C3.15269 71.1708 7.46704 59.1795 14.49 48.7795C22.6715 36.6519 34.1921 27.1583 47.6561 21.449C56.9393 17.5182 66.9198 15.5026 77 15.5229V15.5229ZM77 13.9041C34.4746 13.9041 0 48.4001 0 90.952C0 133.504 34.4746 168 77 168C119.525 168 154 133.504 154 90.952C154 48.4001 119.525 13.9041 77 13.9041Z" fill="#9B232E"/>
<path d="M77 159.602C59.8449 159.583 43.3081 153.189 30.5977 141.661C17.8872 130.132 9.90906 114.291 8.21085 97.209C6.51265 80.1274 11.2154 63.0236 21.407 49.2153C31.5985 35.4069 46.5523 25.8784 63.3675 22.4782C80.1828 19.0779 97.6608 22.0482 112.411 30.8129C127.162 39.5776 138.133 53.5119 143.197 69.9129C148.261 86.3138 147.057 104.012 139.818 119.575C132.579 135.138 119.821 147.455 104.019 154.138C95.472 157.76 86.2821 159.619 77 159.602V159.602Z" fill="#9B232E"/>
<path d="M77 21.4925C90.6706 21.4689 104.033 25.5531 115.357 33.2161C126.388 40.6676 135.023 51.1595 140.217 63.4211C144.667 73.9408 146.419 85.4065 145.315 96.7762C144.21 108.146 140.283 119.059 133.891 128.524C126.444 139.562 115.959 148.202 103.705 153.399C93.1917 157.852 81.7331 159.605 70.3705 158.5C59.0079 157.394 48.1015 153.465 38.6426 147.069C27.6118 139.617 18.9767 129.126 13.7831 116.864C9.33301 106.344 7.5807 94.8786 8.68546 83.5089C9.79021 72.1393 13.717 61.2261 20.109 51.7612C27.5559 40.7236 38.0412 32.0832 50.2952 26.8863C58.7436 23.3093 67.8264 21.4747 77 21.4925ZM77 19.8736C38.2159 19.8736 6.77478 51.3343 6.77478 90.1426C6.77478 128.951 38.2159 160.412 77 160.412C115.784 160.412 147.225 128.951 147.225 90.1426C147.225 51.3343 115.784 19.8736 77 19.8736Z" fill="#9B232E"/>
<path d="M77 134.712C65.9953 134.696 55.3887 130.591 47.2377 123.193C39.0867 115.794 33.9721 105.631 32.8862 94.6729C31.8003 83.7151 34.8204 72.7442 41.3606 63.8883C47.9009 55.0324 57.4951 48.9228 68.2824 46.7445C79.0697 44.5662 90.281 46.4745 99.7417 52.0992C109.202 57.724 116.238 66.6642 119.484 77.1859C122.73 87.7075 121.955 99.0605 117.31 109.043C112.664 119.025 104.479 126.925 94.3415 131.21C88.8553 133.533 82.9571 134.724 77 134.712V134.712Z" fill="#03011B"/>
<path d="M77 46.3826C87.8046 46.3962 98.2191 50.4247 106.223 57.6869C114.227 64.949 119.251 74.927 120.319 85.6854C121.387 96.4437 118.424 107.216 112.004 115.912C105.584 124.607 96.1652 130.608 85.5744 132.748C74.9837 134.888 63.9759 133.016 54.6864 127.495C45.3969 121.974 38.4878 113.198 35.2993 102.868C32.1108 92.5378 32.8702 81.3911 37.4302 71.5898C41.9902 61.7885 50.0257 54.0312 59.9781 49.8227C65.363 47.5417 71.1525 46.3716 77 46.3826V46.3826ZM77 44.7637C51.9536 44.7637 31.6494 65.0805 31.6494 90.1426C31.6494 115.205 51.9536 135.521 77 135.521C102.047 135.521 122.351 115.205 122.351 90.1426C122.351 65.0805 102.047 44.7637 77 44.7637Z" fill="#9B232E"/>
<path d="M76.9494 49.7215C86.9198 49.7344 96.53 53.4525 103.916 60.1543C111.302 66.8561 115.936 76.064 116.921 85.9918C117.906 95.9197 115.171 105.86 109.246 113.884C103.321 121.908 94.6291 127.444 84.8559 129.418C75.0826 131.392 64.925 129.663 56.3533 124.568C47.7816 119.472 41.4069 111.372 38.4658 101.839C35.5247 92.3067 36.2269 82.0207 40.4361 72.9768C44.6453 63.9328 52.0615 56.7756 61.2461 52.8934C66.214 50.7898 71.555 49.7109 76.9494 49.7215V49.7215ZM76.9494 48.1026C53.7736 48.1026 34.9862 66.9017 34.9862 90.092C34.9862 113.282 53.7736 132.081 76.9494 132.081C100.125 132.081 118.913 113.282 118.913 90.092C118.913 66.9017 100.125 48.1026 76.9494 48.1026Z" fill="#9B232E"/>
<path d="M23.7471 56.117L24.0505 56.3325C24.2062 56.1059 24.3636 55.8809 24.5227 55.6577L25.1294 56.0968C23.4462 58.4723 21.926 60.9592 20.5791 63.5405L22.2536 64.4309C22.3942 64.1618 22.5357 63.8957 22.6793 63.6296C22.8897 63.7456 23.1003 63.8616 23.3113 63.9776C23.1697 64.24 23.0295 64.5038 22.8907 64.7689L24.1405 65.4336C23.9989 65.7034 23.8587 65.9766 23.7198 66.2532L23.8867 66.3381C24.0255 66.0636 24.1651 65.7914 24.3053 65.5216L26.6947 66.7874C27.2528 65.7189 27.8369 64.6791 28.447 63.668L26.1486 62.2515C25.9875 62.5213 25.8277 62.7911 25.6693 63.061L25.5086 62.9658C25.6677 62.696 25.8281 62.4262 25.9899 62.1564L25.1476 61.6374C25.9356 60.3308 26.7617 59.0691 27.6259 57.8522L28.4278 58.433C28.2579 58.6725 28.0894 58.9136 27.9222 59.1564L28.0749 59.2647C28.2421 59.0219 28.4106 58.7814 28.5805 58.5433L31.7606 60.8512C31.8954 60.659 32.0329 60.4681 32.1731 60.2785L32.9891 60.8856C32.8526 61.0718 32.7181 61.259 32.5847 61.4482L33.516 62.123C32.7569 63.1928 32.0306 64.3021 31.3369 65.4508L30.9496 65.212C30.3719 66.1699 29.8185 67.1553 29.2893 68.1685C28.8642 69.0005 28.2456 69.7181 27.4854 70.2609C27.5831 70.0504 27.6822 69.8403 27.7827 69.6305C27.3591 69.936 26.8772 70.1509 26.367 70.2619C26.2686 70.4791 26.1712 70.6969 26.0748 70.9155C25.643 71.026 25.1872 70.9962 24.7734 70.8305L22.3001 69.755C22.1754 70.0437 22.0527 70.3337 21.9321 70.6251L21.7592 70.5533C21.8805 70.2612 22.0035 69.9701 22.1282 69.6801L20.8299 69.1155C20.9519 68.8336 21.0756 68.5526 21.201 68.2727L20.5438 67.9752C20.4177 68.2585 20.2926 68.5432 20.1686 68.8292L18.4294 68.0754C18.1897 67.9632 17.9847 67.7884 17.8359 67.5695C17.7186 67.8393 17.6026 68.1091 17.488 68.3789C17.3775 68.2921 17.2854 68.1841 17.217 68.0612C17.3323 67.788 17.4493 67.5182 17.5679 67.2518C17.3738 66.9624 17.2868 66.5648 17.2039 66.1651C17.3657 65.809 17.5285 65.4569 17.6953 65.1038L17.671 64.781C17.4958 65.1459 17.3239 65.5139 17.1553 65.8849C17.0542 64.7537 17.2959 63.4414 17.9643 62.1564C19.3738 59.455 20.9642 56.8522 22.7248 54.3656L23.461 54.8988C23.6827 54.5872 23.9062 54.2779 24.1314 53.971L24.2598 54.0722C24.0346 54.3777 23.8118 54.6863 23.5914 54.998L24.2193 55.4533C24.0656 55.6627 23.9049 55.8934 23.7471 56.117Z" fill="#03011B"/>
<path d="M42.7277 50.7899C42.935 50.9215 43.1423 51.054 43.3475 51.1876C42.3229 51.997 41.3249 52.8476 40.3535 53.7393C40.1378 53.622 39.9214 53.5059 39.7043 53.3913C39.858 53.2483 40.0121 53.1066 40.1664 52.9663C39.8543 52.7923 39.5402 52.6199 39.224 52.4493C39.0582 52.6021 38.8934 52.7528 38.7296 52.9097L38.6123 52.8368C37.686 53.7137 36.7868 54.627 35.9145 55.5767L35.9873 55.6941C36.1343 55.5342 36.2815 55.3754 36.4292 55.2176C36.593 55.5393 36.7585 55.8594 36.9257 56.1777C36.773 56.3427 36.6223 56.5076 36.4706 56.6755C36.5873 56.8927 36.7039 57.1103 36.8205 57.3281C35.9347 58.3231 35.0789 59.3602 34.2532 60.4394C34.1136 60.237 33.9744 60.0374 33.8355 59.8404C33.9751 59.6583 34.1156 59.4779 34.2572 59.2991C34.0678 58.9929 33.88 58.6846 33.694 58.3743C33.5592 58.5463 33.4223 58.719 33.2835 58.8924C32.5595 57.6904 31.8614 56.4661 31.1893 55.2196C30.9979 55.4503 30.8085 55.6833 30.6211 55.9187L30.52 55.7396C30.7006 55.5137 30.8826 55.2897 31.066 55.0678C30.8294 54.6125 30.5961 54.1542 30.3663 53.6928C30.5395 53.4904 30.7131 53.2881 30.887 53.0857C30.7771 52.8456 30.6672 52.6051 30.5574 52.3643C30.3713 52.5768 30.1863 52.7909 30.0022 53.0068C29.5715 52.1508 29.1529 51.2857 28.7464 50.4115C28.5694 50.6139 28.3945 50.8163 28.2196 51.0186C28.1619 50.8942 28.1053 50.7687 28.0487 50.6432C28.2246 50.4409 28.4016 50.2385 28.5795 50.0362C28.4629 49.7778 28.347 49.5191 28.2317 49.2601C28.4703 48.995 28.7106 48.7323 28.9527 48.4719C28.9264 48.4082 28.9001 48.3444 28.8748 48.2807C28.622 48.5505 28.3712 48.8244 28.1225 49.1023C27.991 48.8082 27.8609 48.5127 27.7322 48.2159C28.8532 46.9856 30.0123 45.8086 31.2096 44.6848C31.5038 44.8133 31.797 44.9418 32.0893 45.0733C32.3589 44.8244 32.6286 44.5782 32.8982 44.3347L33.0539 44.447C32.7937 44.6797 32.5349 44.9158 32.2774 45.1553C32.5251 45.2797 32.7708 45.4052 33.0165 45.5307C32.8335 45.6996 32.6505 45.8686 32.4685 46.0366L32.8143 46.2268C33.005 46.0473 33.1972 45.8696 33.3906 45.6936C34.2582 46.0983 35.116 46.5168 35.964 46.9492C36.1663 46.766 36.3796 46.586 36.5889 46.4069C36.8154 46.5313 37.0399 46.6558 37.2644 46.7812C37.0571 46.9573 36.8508 47.1354 36.6456 47.3134C37.1013 47.5441 37.5549 47.7778 38.0066 48.0146C37.7855 48.2035 37.5654 48.3944 37.3463 48.5873L37.5263 48.6783C37.7447 48.4874 37.9645 48.2976 38.1856 48.1087C39.4077 48.792 40.6086 49.5003 41.7883 50.2335C41.9623 50.0925 42.1365 49.9535 42.3111 49.8166C42.6124 50.0109 42.9124 50.2072 43.211 50.4055C43.0523 50.5309 42.8905 50.6604 42.7277 50.7899ZM35.7659 51.4507C35.5023 51.3232 35.2367 51.1967 34.9691 51.0712C34.7608 51.2783 34.5538 51.4874 34.3482 51.6985L34.1611 51.6227C34.3674 51.4102 34.5747 51.2001 34.783 50.9923C34.3583 50.798 33.9313 50.6072 33.5019 50.4196C33.6819 50.8594 33.8659 51.2979 34.054 51.735C33.8568 51.9373 33.6616 52.1397 33.4665 52.3511C33.4948 52.4129 33.5221 52.4746 33.5494 52.5363C33.7435 52.3339 33.9377 52.1245 34.1338 51.9221C34.2602 52.1893 34.3887 52.4554 34.5171 52.7204C34.9283 52.2894 35.3445 51.8662 35.7659 51.4507V51.4507Z" fill="#03011B"/>
<path d="M55.5583 32.2995L55.6797 32.6536C55.9183 32.5747 56.1569 32.4957 56.3956 32.4188C56.672 33.2573 56.9477 34.0961 57.2227 34.9352C57.464 34.8569 57.7057 34.781 57.9477 34.7075C58.0205 34.9362 58.0923 35.1659 58.1651 35.3955C57.9251 35.4691 57.6862 35.5443 57.4482 35.6212L57.8911 36.9729C57.6214 37.0593 57.3542 37.147 57.0892 37.236C57.1105 37.2957 57.1307 37.3544 57.1509 37.4131C57.4168 37.324 57.6828 37.236 57.9497 37.151L59.1783 40.8855C59.3734 40.8228 59.5686 40.7621 59.7637 40.7014L60.0671 41.6707C59.876 41.7294 59.6839 41.7901 59.4928 41.8518C59.5649 42.0717 59.6374 42.2919 59.7102 42.5125C58.5453 42.8855 57.3926 43.2997 56.252 43.755C56.165 43.5405 56.0771 43.326 55.9901 43.1105C56.1923 43.0315 56.3855 42.9546 56.5836 42.8777L56.2146 41.9307C56.0123 42.0086 55.8101 42.0875 55.6079 42.1675C55.1144 40.9533 54.6203 39.7392 54.1255 38.525C53.8646 38.6296 53.6041 38.7358 53.3439 38.8437L53.2711 38.6707C53.5309 38.5625 53.7928 38.4562 54.0547 38.352L53.5198 37.0367L53.4854 37.0508C53.267 37.6464 53.0597 38.2431 52.8636 38.8407C52.604 38.952 52.3449 39.0643 52.086 39.1776L52.0284 39.4083C52.2751 39.299 52.5218 39.1908 52.7695 39.0855C52.6502 39.4849 52.5356 39.8852 52.4257 40.2865C52.2019 40.9611 51.993 41.6356 51.7988 42.3101C51.2265 42.5833 50.6582 42.8659 50.094 43.158C49.0424 42.7445 47.9669 42.3644 46.8674 42.0177C46.6207 42.158 46.375 42.3007 46.1303 42.4457L45.8744 42.3799C46.1205 42.2329 46.3665 42.0889 46.6126 41.9479C45.9985 41.755 45.3783 41.5715 44.752 41.3975L44.5569 41.5169C44.805 41.9216 45.053 42.3263 45.3011 42.731C45.0571 42.8801 44.8144 43.0309 44.5731 43.1833L44.6742 43.3411C44.9148 43.1894 45.1565 43.039 45.3992 42.8899C46.0881 44.0042 46.7764 45.1202 47.464 46.2379L47.9979 45.9162L48.5216 46.7883C48.3464 46.8922 48.1718 46.9978 47.9979 47.105C48.1192 47.3074 48.2416 47.4996 48.3629 47.6979C47.3032 48.3455 46.2641 49.0332 45.2455 49.761L44.841 49.1954C45.0079 49.076 45.1757 48.9566 45.3466 48.8392C45.1518 48.562 44.9573 48.2841 44.7632 48.0055C44.5913 48.1249 44.4204 48.2463 44.2505 48.3677L41.9521 45.1684C41.7196 45.3354 41.487 45.5044 41.2565 45.6743L41.1442 45.5236C41.3768 45.3523 41.6097 45.1836 41.8429 45.0177L41.0158 43.8642C41.2349 43.7071 41.4546 43.5523 41.6751 43.3998L41.2615 42.8059C41.0384 42.9604 40.8159 43.1172 40.5941 43.2764C40.0798 42.558 39.5648 41.8393 39.0491 41.1203C38.8408 41.27 38.6328 41.4211 38.4252 41.5735L38.2027 41.27C38.411 41.1176 38.6204 40.9658 38.8307 40.8147L38.3777 40.1833C38.6689 39.9749 38.9614 39.7695 39.2554 39.5672L39.1492 39.4124C38.8539 39.6147 38.5604 39.8208 38.2685 40.0306L37.7538 39.3122C39.0171 38.4083 40.3063 37.555 41.6215 36.7524C42.0361 36.8434 42.4486 36.9389 42.8591 37.0387C43.1645 36.8572 43.4716 36.6792 43.7803 36.5045L44.0159 36.5854C43.7085 36.7608 43.4018 36.9378 43.0958 37.1166C43.4503 37.209 43.8039 37.3034 44.1565 37.3999C43.9461 37.5206 43.7362 37.6421 43.5265 37.7641L44.0321 37.9048C44.2525 37.7773 44.4733 37.6512 44.6944 37.5264C45.8882 37.8684 47.0585 38.2434 48.2052 38.6515C48.5469 38.4775 48.8897 38.3068 49.2335 38.1395C49.5658 36.9928 49.9366 35.8495 50.3458 34.7095C50.1142 34.8107 49.8837 34.9119 49.6542 35.0131C49.7108 34.8512 49.7684 34.6886 49.8271 34.5254C50.0583 34.4222 50.2905 34.321 50.5237 34.2219C50.641 33.89 50.761 33.5581 50.8837 33.2263C51.1952 33.0967 51.5076 32.9693 51.8211 32.8438C51.8595 32.7608 51.8989 32.6779 51.9384 32.5959C51.6114 32.7241 51.2855 32.8559 50.9606 32.9915C51.1122 32.6205 51.268 32.2495 51.4277 31.8785L51.4176 31.8533C52.8332 31.2893 54.263 30.7754 55.707 30.3113L55.983 31.1501C56.3032 31.0469 56.6251 30.9457 56.9487 30.8465C56.9669 30.9062 56.9851 30.9659 57.0043 31.0256C56.6827 31.1234 56.3619 31.2246 56.0417 31.3291C56.1226 31.574 56.2024 31.8199 56.2833 32.0657C56.0393 32.1413 55.7976 32.2192 55.5583 32.2995Z" fill="#03011B"/>
<path d="M69.6842 29.2692L69.7237 29.6415C69.9724 29.6162 70.2212 29.5929 70.4699 29.5697C70.4932 29.8186 70.5164 30.0664 70.5387 30.3153C68.9073 30.4624 67.2824 30.6708 65.6639 30.9406C65.7623 31.5113 65.8607 32.0819 65.9591 32.6526C66.8826 32.4974 67.8089 32.3625 68.7378 32.2479C68.7449 32.3005 68.7509 32.3491 68.758 32.4067C69.0209 32.3743 69.2842 32.344 69.5477 32.3157C69.574 32.5544 69.6013 32.7932 69.6276 33.032C69.3674 33.0603 69.1075 33.0904 68.848 33.1221L69.0239 34.5274C68.7459 34.5608 68.4678 34.5973 68.1908 34.6347C68.1999 34.6964 68.2079 34.7581 68.217 34.8198C68.4934 34.7821 68.7701 34.7463 69.0472 34.7126C69.0674 34.8725 69.0866 35.0313 69.1069 35.1902C68.2231 35.2974 67.3414 35.4246 66.4617 35.5716C66.5864 36.2913 66.7104 37.0111 66.8338 37.7308C68.275 37.4913 69.7227 37.3058 71.1767 37.1743C71.2151 37.5911 71.2539 38.0077 71.293 38.4239C71.5074 38.4046 71.7217 38.3874 71.9361 38.3702L72.018 39.382C71.8077 39.3982 71.5974 39.4164 71.387 39.4346L71.4507 40.1267C69.4606 40.3069 67.4818 40.5964 65.5233 40.9938C64.9308 41.1132 64.3402 41.2427 63.7518 41.3823C63.6971 41.1567 63.6425 40.9321 63.5869 40.7065L64.1734 40.5709C64.0966 40.241 64.02 39.9112 63.9439 39.5813C63.7416 39.6269 63.5455 39.6724 63.3473 39.72L62.416 35.9015C62.1464 35.9689 61.8747 36.0364 61.601 36.1038C61.5858 36.0441 61.5697 35.9834 61.5545 35.9227C61.8241 35.8552 62.0965 35.7878 62.3715 35.7203C62.2603 35.2617 62.1484 34.803 62.0358 34.3443C62.2916 34.2836 62.5414 34.2249 62.8033 34.1672C62.7487 33.9332 62.6948 33.6988 62.6415 33.464C62.3816 33.5217 62.1238 33.5814 61.8649 33.6431C61.6566 32.7865 61.4477 31.9292 61.238 31.0712C60.9943 31.1288 60.7516 31.1885 60.5079 31.2492C60.4776 31.1278 60.4463 31.0074 60.4149 30.887C60.6596 30.8256 60.9047 30.7659 61.15 30.7079C61.0884 30.457 61.0277 30.202 60.966 29.9552C61.3031 29.8742 61.6431 29.7963 61.9863 29.7214C61.9731 29.6607 61.959 29.6 61.9448 29.5383C61.603 29.6145 61.2619 29.6928 60.9215 29.773C60.8541 29.487 60.7847 29.2014 60.7132 28.916C62.1868 28.566 63.6698 28.2665 65.1623 28.0176L65.1674 28.0439C66.8601 27.7612 68.5608 27.5434 70.2697 27.3903L70.3486 28.2412C70.6964 28.2101 71.0442 28.1815 71.3921 28.1552C71.3971 28.2179 71.4022 28.2796 71.4062 28.3413C71.0598 28.3676 70.7129 28.3963 70.3658 28.4273C70.3894 28.6843 70.4133 28.9413 70.4376 29.1983C70.1848 29.2206 69.935 29.2439 69.6842 29.2692Z" fill="#03011B"/>
<path d="M85.5786 38.9509C85.791 38.9853 86.0033 39.0214 86.2157 39.0592C85.77 39.3952 85.2755 39.661 84.7495 39.8474L84.1226 39.7553C83.2356 40.0894 82.2848 40.2188 81.3409 40.1337C79.4507 39.9624 77.5529 39.8892 75.6551 39.9142L75.646 39.2201C75.8577 39.2201 76.0687 39.2184 76.279 39.215C76.279 38.8771 76.279 38.5381 76.279 38.2032C76.0646 38.2032 75.8496 38.2049 75.6339 38.2083C75.6285 37.7894 75.6231 37.3709 75.6177 36.9526C77.5977 36.9262 79.5778 37.0015 81.5502 37.1783C82.3096 37.2461 82.9486 36.8636 83.0194 36.2798C83.0902 35.696 82.534 35.1739 81.7413 35.1031C81.4905 35.0808 81.2357 35.0596 80.988 35.0404C80.7402 35.0211 80.4824 35.0039 80.269 34.9898L80.0173 34.9736L79.7655 34.9594L79.5137 34.9453V34.9189C78.7186 34.8341 77.9428 34.6191 77.2173 34.2825C76.9383 34.2785 76.6592 34.2765 76.3801 34.2765C76.2405 34.2253 76.1053 34.163 75.9756 34.0903C76.2554 34.0903 76.5351 34.0903 76.8149 34.0903C76.166 33.7439 75.5969 33.2651 75.1445 32.6849C75.4053 32.6795 75.6669 32.6758 75.9291 32.6738C75.7566 32.4553 75.6147 32.2143 75.5075 31.9574C75.2425 31.9615 74.978 31.9669 74.7137 31.9736C74.5862 31.642 74.5118 31.2924 74.4933 30.9375C74.4811 30.3634 74.6429 29.799 74.9574 29.3187C74.7076 29.3247 74.4579 29.3308 74.2081 29.3399C74.3016 29.2062 74.4029 29.0782 74.5115 28.9565C74.7491 28.9494 74.9877 28.9443 75.2254 28.9403C75.4901 28.6523 75.7812 28.3897 76.095 28.1561C76.4428 28.1561 76.7916 28.1561 77.1395 28.1561C77.2398 28.1043 77.335 28.043 77.4236 27.973C77.0879 27.973 76.7522 27.9659 76.4125 27.9649C77.458 27.3507 78.8645 27.0037 80.4197 27.0705C82.3935 27.1865 84.3602 27.3889 86.3198 27.6776C86.2693 28.0148 86.2184 28.3497 86.1671 28.6823C86.4995 28.7308 86.8315 28.7821 87.1631 28.8361L87.1328 29.0202C86.8021 28.9666 86.4705 28.919 86.1398 28.8664C86.1004 29.1224 86.062 29.3774 86.0236 29.6333C85.7741 29.5956 85.5251 29.5602 85.2763 29.5271C85.2581 29.6505 85.2409 29.774 85.2237 29.8974C85.4711 29.9312 85.7189 29.9649 85.9669 29.9986C85.9366 30.201 85.9053 30.4033 85.8749 30.6057C84.0306 30.3359 82.1768 30.1436 80.3135 30.029C79.452 29.9774 78.7715 30.4094 78.7533 30.9396C78.7351 31.4697 79.3246 31.921 80.1143 31.9949C80.4177 32.0131 80.7564 32.0353 81.1346 32.0637C81.4379 32.0859 81.7008 32.1082 82.0022 32.1345C82.2662 32.1631 82.5285 32.2063 82.7878 32.264C83.0518 32.2903 83.3147 32.3197 83.5776 32.349C84.4547 32.527 85.2846 32.8876 86.0134 33.4073C85.7546 33.3669 85.4954 33.3281 85.2359 33.291C85.8385 33.7162 86.3252 34.2856 86.6515 34.9473C86.3751 34.9007 86.0987 34.8555 85.8223 34.8117C85.8496 34.8704 85.8729 34.9544 85.9012 35.0141C86.1762 35.0586 86.4523 35.1041 86.7273 35.1517C86.935 35.6876 86.9927 36.27 86.8942 36.8363C86.7475 37.6892 86.2602 38.3894 85.5786 38.9509Z" fill="#03011B"/>
<path d="M100.206 44.1768C99.829 44.1768 99.466 44.1526 99.1454 44.1232C98.9614 44.0392 98.7774 43.9573 98.5923 43.8753C96.7631 43.7742 95.7742 43.4372 95.211 43.2268C94.1932 42.8516 93.2512 42.296 92.4303 41.5867C92.6325 41.6484 92.8348 41.7111 93.037 41.7749C92.519 41.3393 92.0537 40.8445 91.6507 40.3007C91.4545 40.245 91.2574 40.1914 91.0592 40.1378C90.9308 39.9648 90.8003 39.7917 90.7022 39.6319C89.957 38.444 89.5374 37.1186 89.6648 35.7496C89.3918 35.6879 89.1187 35.6292 88.8447 35.5716C88.8569 35.5189 88.8316 35.4592 88.8447 35.3813C89.1191 35.438 89.3931 35.4974 89.6668 35.5594C89.6821 35.3631 89.7159 35.1686 89.7679 34.9786C89.8359 34.7092 89.9223 34.4449 90.0268 34.1874C90.2826 34.2441 90.5384 34.3038 90.7932 34.3645C90.8826 34.1347 90.9894 33.9122 91.1128 33.6987C90.867 33.64 90.6213 33.5814 90.3746 33.5257C90.9014 32.604 91.7559 31.8684 92.7852 31.3888C92.5554 31.3294 92.3252 31.2711 92.0946 31.2138C92.2751 31.1217 92.4604 31.0393 92.6497 30.9669C92.8813 31.0266 93.1128 31.0863 93.3434 31.148C93.825 30.9694 94.3228 30.838 94.8298 30.7554C95.1668 30.8512 95.5019 30.9507 95.8349 31.0539C95.9663 31.0377 96.0988 31.0225 96.2778 30.9942C95.9421 30.893 95.6074 30.7918 95.2666 30.6907C96.7739 30.5501 98.2933 30.755 99.7097 31.2896C101.067 31.8145 102.374 32.4628 103.613 33.2262L103.254 33.6228C103.577 33.7658 103.898 33.9115 104.217 34.0599L104.101 34.2117C103.782 34.064 103.461 33.9193 103.14 33.7776C102.972 33.9861 102.803 34.1948 102.634 34.4039C102.401 34.3021 102.168 34.2009 101.935 34.1004L101.676 34.3979C101.909 34.4964 102.141 34.5958 102.371 34.6964C102.142 34.9857 101.912 35.2751 101.685 35.5655C100.718 34.9859 99.7056 34.4848 98.6581 34.067C97.1413 33.5075 95.5942 33.806 94.6195 34.6559C94.8736 34.7328 95.1274 34.8117 95.3809 34.8926C95.17 35.0585 94.9859 35.2557 94.8349 35.4775C94.5841 35.3999 94.3326 35.3233 94.0805 35.2478C93.9297 35.4841 93.8123 35.7401 93.7317 36.0086C93.6788 36.1994 93.6449 36.395 93.6306 36.5925C93.3606 36.5125 93.0916 36.4346 92.8216 36.3587C92.7994 36.4356 92.8216 36.4963 92.8055 36.5479C93.0744 36.6238 93.3434 36.7027 93.6144 36.7827C93.593 37.1502 93.6467 37.5182 93.7721 37.8643C93.766 37.8784 93.7638 37.894 93.7658 37.9093C93.7677 37.9246 93.7738 37.9391 93.7832 37.9513C93.8208 38.0742 93.871 38.1928 93.9329 38.3054C93.9511 38.3671 93.9946 38.4653 94.0118 38.526C94.0704 38.6286 94.1381 38.7258 94.214 38.8164C94.255 38.9123 94.3152 38.9987 94.391 39.0703C94.4529 39.1644 94.5226 39.253 94.5993 39.3354C94.6764 39.4249 94.7595 39.5091 94.848 39.5874C94.9236 39.6375 94.9916 39.6982 95.0502 39.7675C95.164 39.857 95.2851 39.9369 95.4122 40.0062C95.4762 40.0608 95.5481 40.1052 95.6256 40.1378C95.8231 40.2663 96.0349 40.3715 96.2565 40.4514C96.6853 40.6133 97.297 40.8298 98.9624 40.8035C99.1518 41.5907 99.3231 42.3769 99.4761 43.162C99.6743 43.2517 99.8718 43.3428 100.069 43.4352C100.121 43.6801 100.166 43.9279 100.206 44.1768Z" fill="#03011B"/>
<path d="M111.075 51.6439C110.988 51.8732 110.9 52.1029 110.811 52.3329C109.808 51.4844 108.782 50.6814 107.733 49.9239C107.805 49.6891 107.877 49.4544 107.947 49.2156C108.114 49.335 108.28 49.4564 108.446 49.5778C108.555 49.2372 108.662 48.8952 108.767 48.5519C108.588 48.4224 108.408 48.2929 108.228 48.1664L108.276 48.0359C107.257 47.3175 106.218 46.6382 105.158 45.9981L105.057 46.0942C105.235 46.2015 105.413 46.3097 105.589 46.42C105.311 46.6467 105.035 46.875 104.761 47.105C104.576 46.9924 104.392 46.8811 104.207 46.7711C104.019 46.93 103.833 47.0888 103.647 47.2497C102.55 46.6028 101.434 45.9998 100.297 45.4406C100.461 45.2625 100.625 45.0848 100.79 44.9074C100.982 45.0086 101.172 45.0996 101.363 45.1978C101.62 44.9482 101.878 44.7 102.139 44.4531C101.955 44.358 101.772 44.2629 101.587 44.1698C102.599 43.2106 103.634 42.272 104.695 41.354C104.446 41.2191 104.196 41.0865 103.944 40.9563L104.098 40.8248C104.339 40.9503 104.578 41.0778 104.817 41.2073C105.207 40.8801 105.601 40.556 105.998 40.2349C106.22 40.3574 106.441 40.4818 106.66 40.6073C106.869 40.4488 107.078 40.2909 107.288 40.1338C107.056 39.9992 106.821 39.8656 106.587 39.7351C107.323 39.1341 108.071 38.5436 108.832 37.9635C108.612 37.8346 108.391 37.7082 108.17 37.584C108.279 37.5011 108.388 37.4191 108.497 37.3382C108.719 37.465 108.941 37.5928 109.161 37.7216C109.387 37.5527 109.612 37.3857 109.839 37.2158C110.132 37.3898 110.424 37.5662 110.715 37.7449L110.884 37.6286C110.581 37.4417 110.277 37.2576 109.974 37.0761C110.231 36.8859 110.489 36.697 110.75 36.5095C112.117 37.3318 113.456 38.2087 114.769 39.1402C114.702 39.4532 114.632 39.7655 114.561 40.0771C114.852 40.2869 115.142 40.499 115.431 40.7135L115.352 40.8886C115.075 40.6822 114.797 40.4798 114.518 40.2815C114.445 40.5486 114.371 40.8137 114.296 41.0798C114.098 40.9354 113.899 40.7928 113.699 40.6518L113.581 41.0272C113.79 41.1762 113.998 41.3267 114.206 41.4784C113.979 42.4073 113.739 43.3304 113.485 44.2477C113.703 44.413 113.919 44.5796 114.134 44.7475C114.058 44.9937 113.981 45.2396 113.902 45.4851C113.69 45.3172 113.477 45.1512 113.262 44.9873C113.128 45.4811 112.989 45.9725 112.847 46.4615C112.62 46.2834 112.391 46.107 112.16 45.9323C112.142 45.9981 112.125 46.0629 112.107 46.1276C112.336 46.3016 112.564 46.4777 112.791 46.6558C112.366 47.9913 111.913 49.3117 111.432 50.6169C111.605 50.7596 111.776 50.9023 111.947 51.0469C111.817 51.3842 111.686 51.7188 111.553 52.0506C111.394 51.9144 111.234 51.7788 111.075 51.6439ZM109.083 44.9813C109.158 44.698 109.231 44.4126 109.303 44.1283C109.065 43.9691 108.826 43.8123 108.587 43.6578L108.626 43.4555C108.867 43.6113 109.106 43.7685 109.344 43.927C109.453 43.4737 109.559 43.0187 109.661 42.5621C109.27 42.8319 108.884 43.1017 108.501 43.3715C108.27 43.2238 108.039 43.0771 107.807 42.9334L107.644 43.0528C107.876 43.1965 108.106 43.3418 108.336 43.4889C108.103 43.6676 107.871 43.848 107.639 44.0302C108.125 44.3418 108.606 44.6585 109.083 44.9802V44.9813Z" fill="#03011B"/>
<path d="M126.333 57.6489C126.052 57.6951 125.768 57.7117 125.484 57.6985C125.326 57.4759 125.168 57.2543 125.008 57.0337C124.554 57.0232 124.105 56.9345 123.68 56.7717C123.322 56.6367 122.977 56.4672 122.651 56.2658C122.472 56.0385 122.292 55.8122 122.111 55.5869C121.949 55.5056 121.794 55.4133 121.645 55.3106C121.835 55.5434 122.024 55.7774 122.212 56.0128C120.999 55.2226 119.947 54.1582 119.017 53.193L116.576 55.4827C116.722 55.6418 116.868 55.802 117.015 55.9633L116.264 56.6503C116.122 56.4911 115.979 56.3339 115.834 56.1788L115.328 56.6553C114.452 55.7049 113.546 54.7943 112.61 53.9235L113.082 53.4115C113.236 53.5542 113.386 53.6979 113.54 53.8435L114.239 53.1029C114.084 52.9552 113.929 52.8095 113.772 52.6638C114.662 51.6999 115.553 50.7353 116.442 49.7701C116.228 49.5677 116.013 49.3708 115.797 49.1792L115.922 49.0385C116.139 49.2348 116.355 49.4328 116.57 49.6325C116.891 49.2844 117.212 48.9367 117.532 48.5893C117.735 48.7755 117.934 48.9637 118.131 49.1539L118.629 48.6288C118.426 48.4365 118.224 48.246 118.022 48.0571L119.823 46.1114C119.632 45.9334 119.438 45.7563 119.245 45.5813L119.496 45.302C119.69 45.4791 119.884 45.6571 120.077 45.8362L120.603 45.2656C120.873 45.5131 121.138 45.764 121.399 46.0183L121.529 45.8828C121.265 45.6291 120.999 45.3775 120.731 45.128L121.33 44.4784C121.904 45.0119 122.47 45.5583 123.027 46.1175L123.361 46.4534C123.692 46.7914 124.052 47.1617 124.437 47.5765C124.526 47.6706 124.615 47.7667 124.703 47.8618C125.903 49.2288 127.198 51.0217 127.685 52.7538C127.916 53.0533 128.145 53.3552 128.372 53.6594C128.409 53.798 128.396 53.9164 128.432 54.054C128.215 53.7606 127.997 53.4695 127.777 53.1808C127.799 53.3759 127.833 53.5694 127.878 53.7606C127.91 54.0366 127.904 54.3158 127.86 54.5903C127.707 54.3805 127.552 54.1724 127.395 53.966C127.366 54.1243 127.327 54.2807 127.279 54.4344C127.442 54.653 127.603 54.8725 127.763 55.0931C127.622 55.6327 127.304 56.1092 126.859 56.4459C126.548 56.6694 126.199 56.8362 125.83 56.9386C125.999 57.1734 126.166 57.4111 126.333 57.6489ZM121.184 51.1593C121.969 51.9687 122.841 52.8156 123.4 52.9805C123.474 53.025 123.68 53.0645 124.028 52.77C124.191 52.6324 124.179 52.5333 124.173 52.4847C124.099 51.8918 123.31 50.8061 122.532 49.8895L121.184 51.1593Z" fill="#03011B"/>
<path d="M134.878 66.671L134.538 66.8259C134.657 67.0923 134.774 67.3604 134.889 67.6302L134.203 67.9338C133.437 66.1692 132.611 64.466 131.726 62.8242L130.209 63.66C130.714 64.5969 131.2 65.555 131.665 66.5345L131.522 66.6033C131.653 66.8805 131.783 67.1594 131.912 67.44L131.259 67.7435C131.132 67.4663 131.002 67.1911 130.873 66.9169L129.597 67.529C129.457 67.2363 129.316 66.9456 129.173 66.6569L129.006 66.7409C129.149 67.0289 129.29 67.3189 129.428 67.611L128.995 67.8194C128.552 66.8872 128.09 65.9766 127.609 65.0876L125.687 66.1419C126.475 67.6036 127.211 69.1213 127.895 70.6949L126.745 71.2008C126.846 71.4325 126.947 71.6663 127.048 71.9L126.113 72.2936C126.012 72.0639 125.919 71.8352 125.82 71.6076L125.184 71.8848C124.272 69.7811 123.232 67.7352 122.07 65.7584C121.727 65.1736 121.374 64.6002 121.013 64.0384L121.595 63.6579C121.715 63.8451 121.834 64.0333 121.951 64.2235L122.809 63.6782C122.688 63.4849 122.567 63.2937 122.446 63.1025L125.734 60.9534C125.567 60.6924 125.398 60.433 125.228 60.1753L125.384 60.0742C125.554 60.3332 125.724 60.5922 125.89 60.8543L127.076 60.0792C127.232 60.3241 127.387 60.571 127.542 60.8188L128.149 60.4333C127.993 60.1811 127.836 59.9315 127.677 59.6846L129.892 58.2367C129.742 58.0027 129.592 57.7703 129.44 57.5396L129.75 57.3312C129.903 57.5626 130.055 57.7963 130.205 58.0324L130.854 57.6084C131.063 57.9342 131.269 58.2627 131.472 58.5939L131.631 58.4927C131.429 58.1609 131.222 57.8317 131.011 57.5052L131.754 57.0064C132.658 58.4229 133.519 59.8866 134.335 61.3976L134.312 61.4097C135.236 63.1284 136.098 64.9095 136.899 66.753L136.117 67.095C136.279 67.47 136.439 67.8488 136.598 68.2312L136.425 68.3031C136.269 67.9226 136.108 67.5449 135.945 67.1699L135.237 67.4795C135.118 67.2083 134.999 66.9392 134.878 66.671Z" fill="#03011B"/>
<path d="M74.7391 6.43702L72.5044 4.28696L75.5692 3.81951L76.9222 1.02899L78.3135 3.8013L81.3844 4.22625L79.1791 6.40667L79.7241 9.46025L76.9697 8.03565L74.2355 9.49769L74.7391 6.43702Z" fill="#9B232E"/>
<path d="M76.9292 2.05698L77.7989 3.79119L78.0142 4.21918L78.4874 4.28495L80.4087 4.55105L79.0294 5.9109L78.6887 6.24783L78.7696 6.72033L79.1103 8.62958L77.3914 7.73921L76.9667 7.51864L76.545 7.74426L74.8351 8.65488L75.1496 6.74057L75.2275 6.26806L74.8816 5.93619L73.4842 4.59557L75.4054 4.30417L75.8787 4.23132L76.0869 3.80131L76.9333 2.05496L76.9292 2.05698ZM76.9191 -0.00201416L75.2679 3.40368L71.5266 3.97332L74.2567 6.59689L73.642 10.3314L76.9788 8.54763L80.3389 10.2859L79.6735 6.55946L82.3643 3.89946L78.623 3.38041L76.9252 -0.00201416H76.9191Z" fill="#9B232E"/>
<path d="M8.03269 148.246L5.00628 148.917L6.31473 146.105L4.74237 143.432L7.81934 143.808L9.87301 141.485L10.4666 144.529L13.3089 145.767L10.599 147.272L10.3007 150.359L8.03269 148.246Z" fill="#9B232E"/>
<path d="M9.60604 142.478L9.97714 144.382L10.0681 144.851L10.507 145.042L12.2856 145.816L10.5899 146.757L10.1713 146.99L10.1258 147.467L9.93972 149.398L8.5241 148.075L8.17424 147.749L7.70708 147.85L5.80812 148.27L6.62615 146.512L6.82838 146.077L6.5857 145.665L5.60184 143.993L7.52305 144.229L7.99829 144.287L8.31479 143.928L9.60604 142.478ZM10.147 140.492L7.63933 143.325L3.88489 142.866L5.8061 146.128L4.20947 149.559L7.90223 148.741L10.6708 151.321L11.0338 147.553L14.3413 145.716L10.872 144.207L10.149 140.491L10.147 140.492Z" fill="#9B232E"/>
<path d="M144.692 147.089L141.889 145.765L144.645 144.344L145.038 141.267L147.239 143.451L150.286 142.874L148.891 145.644L150.38 148.364L147.316 147.893L145.191 150.151L144.692 147.089Z" fill="#9B232E"/>
<path d="M145.373 142.24L146.749 143.606L147.09 143.943L147.559 143.854L149.464 143.492L148.591 145.226L148.377 145.653L148.607 146.072L149.538 147.774L147.622 147.479L147.148 147.406L146.821 147.755L145.491 149.172L145.18 147.256L145.103 146.784L144.67 146.581L142.917 145.753L144.636 144.864L145.061 144.645L145.122 144.17L145.368 142.248L145.373 142.24ZM144.698 140.302L144.219 144.057L140.856 145.79L144.277 147.409L144.883 151.145L147.477 148.389L151.218 148.965L149.398 145.645L151.101 142.265L147.384 142.973L144.697 140.308L144.698 140.302Z" fill="#9B232E"/>
<path d="M72.3123 119.471L72.3537 119.453V119.343C72.3537 117.814 72.3537 116.285 72.3537 114.755C72.3521 114.631 72.311 114.51 72.2364 114.41C70.0658 111.217 67.8955 108.018 65.7255 104.816C65.6612 104.718 65.5708 104.641 65.4647 104.593C62.6792 103.302 59.8948 102.009 57.1114 100.715C57.0477 100.684 56.981 100.66 56.9153 100.633C56.9522 100.703 57.0052 100.764 57.07 100.81C59.3107 102.609 61.5511 104.409 63.7912 106.209C63.9033 106.302 64.0001 106.412 64.0784 106.536C66.7842 110.789 69.4888 115.044 72.1919 119.299C72.2293 119.358 72.2718 119.415 72.3123 119.471ZM59.0519 88.1301C59.0741 88.2182 59.0822 88.2606 59.0953 88.3011C59.5531 89.7743 60.0105 91.2475 60.4675 92.7206C60.4849 92.7757 60.5137 92.8265 60.552 92.8698C60.5904 92.913 60.6374 92.9477 60.69 92.9716C62.7035 94.0953 64.7157 95.2221 66.7266 96.352C66.8277 96.4105 66.9425 96.4412 67.0593 96.441C68.7567 96.441 70.4541 96.441 72.1515 96.441C72.2121 96.441 72.2738 96.4319 72.3355 96.4268L72.3719 96.3681C72.3041 96.3257 72.2393 96.2787 72.1778 96.2275C71.2758 95.3736 70.3742 94.5193 69.4729 93.6646C69.3819 93.5798 69.2798 93.5077 69.1696 93.4501C65.8826 91.7166 62.5943 89.9854 59.3047 88.2566C59.2359 88.2182 59.1641 88.1848 59.0519 88.1301ZM95.6559 88.1848L95.6226 88.1524C95.5639 88.1807 95.5033 88.207 95.4456 88.2374C92.1371 89.979 88.8286 91.7206 85.5201 93.4623C85.4292 93.5098 85.3449 93.569 85.2693 93.6383C84.3451 94.5118 83.4226 95.3887 82.5017 96.269C82.4572 96.3115 82.4178 96.3601 82.342 96.444H82.5573C84.2622 96.444 85.967 96.444 87.6718 96.444C87.7731 96.4436 87.8728 96.4182 87.962 96.3702C89.9891 95.2397 92.0154 94.1068 94.0411 92.9716C94.0926 92.9456 94.1381 92.9092 94.1747 92.8646C94.2113 92.82 94.2381 92.7682 94.2535 92.7125C94.6262 91.4984 95.0031 90.2842 95.3839 89.0701C95.48 88.7706 95.57 88.4731 95.661 88.1848H95.6559ZM71.7288 126.144C71.7389 126.09 71.746 126.056 71.7511 126.022L71.8967 124.909C72.0403 123.809 72.1828 122.709 72.3325 121.61C72.3441 121.558 72.3417 121.503 72.3253 121.452C72.309 121.401 72.2793 121.355 72.2394 121.319C71.0261 120.111 69.8147 118.901 68.6053 117.689C68.5653 117.655 68.5227 117.624 68.4779 117.597C68.4729 117.667 68.4678 117.711 68.4678 117.753C68.4678 119.723 68.4678 121.693 68.4678 123.663C68.4652 123.717 68.4771 123.771 68.5021 123.819C68.5272 123.867 68.5646 123.907 68.6104 123.935C69.598 124.636 70.5845 125.34 71.5701 126.046C71.6135 126.078 71.6631 126.105 71.7288 126.144Z" fill="#03011B"/>
<path d="M61.7092 80.4476C61.7891 79.7889 61.8619 79.1778 61.9367 78.5667C62.0115 77.9556 62.0732 77.3374 62.1703 76.6928L76.8645 87.3784C76.8703 87.3294 76.8569 87.2801 76.8271 87.2408C71.6465 79.5822 66.466 71.9246 61.2855 64.268C61.283 64.2654 61.28 64.2634 61.2767 64.262C61.2734 64.2606 61.2699 64.2599 61.2663 64.2599C61.2602 64.2599 61.2552 64.267 61.2491 64.2711C61.243 64.2751 61.241 64.2832 61.238 64.2893C61.237 64.2963 61.237 64.3035 61.238 64.3105V69.583C61.238 69.6052 61.238 69.6275 61.238 69.6487C61.236 69.6632 61.2327 69.6775 61.2279 69.6912C61.2259 69.6979 61.2216 69.7037 61.2157 69.7074C61.2016 69.7139 61.1866 69.7183 61.1712 69.7206C61.148 69.6912 61.1176 69.6498 61.0843 69.6123C60.6656 69.1388 60.2531 68.6592 59.8244 68.1958C59.7548 68.123 59.701 68.0367 59.6662 67.9421C59.6314 67.8476 59.6164 67.747 59.6221 67.6464C59.6282 63.5945 59.6282 59.543 59.6221 55.4917C59.6221 55.4098 59.6221 55.3268 59.6221 55.2449L59.5756 55.2398L49.7491 73.1303L61.7092 80.4476ZM92.5607 76.6868C92.7144 77.9545 92.8641 79.1819 93.0158 80.4476L104.975 73.1303C101.714 67.185 98.4615 61.2569 95.2171 55.3461C95.2028 55.3209 95.1865 55.2969 95.1685 55.2742C95.1663 55.2715 95.1635 55.2694 95.1604 55.268C95.1572 55.2666 95.1538 55.266 95.1503 55.2661C95.1385 55.2687 95.127 55.2724 95.116 55.2772V67.6434C95.116 67.7021 95.116 67.7607 95.116 67.8194C95.1189 67.863 95.1123 67.9068 95.0968 67.9476C95.0813 67.9885 95.0571 68.0255 95.026 68.0562C94.5568 68.5833 94.0906 69.1135 93.6225 69.6406C93.5882 69.6727 93.5514 69.7018 93.5122 69.7277C93.5054 69.7151 93.5 69.7019 93.4961 69.6882L93.49 64.3257C93.4896 64.311 93.4875 64.2964 93.4839 64.2822C93.4825 64.2756 93.4785 64.2698 93.4728 64.266C93.4678 64.266 93.4597 64.2599 93.4445 64.2539C93.4121 64.2984 93.3757 64.3429 93.3434 64.3905L77.8392 87.3359C77.8378 87.3392 77.837 87.3429 77.837 87.3465C77.837 87.3502 77.8378 87.3538 77.8392 87.3571C77.8392 87.3571 77.8473 87.3662 77.8584 87.3784L92.5607 76.6868ZM77.3448 85.3447C77.368 85.3336 77.4105 85.3275 77.4226 85.3052C77.4671 85.2243 77.4894 85.1282 77.5409 85.0533C82.8664 77.3158 88.1945 69.5796 93.5254 61.8448C93.6112 61.7274 93.6569 61.5855 93.6558 61.4401C93.6518 59.4691 93.6518 57.4981 93.6558 55.5272V55.2611L93.4354 55.4381L84.065 63.2421L81.0952 65.7078C81.0038 65.7689 80.9394 65.8627 80.9152 65.9699C80.6401 67.4653 80.358 68.9597 80.0779 70.4541C79.6317 72.8366 79.1861 75.2193 78.7412 77.6024L77.5157 84.1447C77.4722 84.3744 77.4247 84.604 77.3792 84.8347C77.3363 84.7707 77.3086 84.6976 77.2983 84.6212C76.9996 83.026 76.7007 81.4304 76.4014 79.8345C76.1317 78.391 75.8601 76.9471 75.5864 75.503C75.3113 74.0366 75.037 72.5708 74.7633 71.1057C74.4498 69.4302 74.1333 67.7557 73.8249 66.0802C73.8026 65.9207 73.7201 65.7759 73.5944 65.6754C71.4372 63.8866 69.2848 62.0954 67.1371 60.3018L61.2724 55.4189C61.2188 55.3744 61.1601 55.3369 61.0833 55.2803C61.0833 55.3562 61.0731 55.3987 61.0731 55.4401C61.0731 57.4637 61.0731 59.4873 61.0731 61.5109C61.0735 61.6203 61.109 61.7267 61.1743 61.8144L73.1747 79.2304C74.5135 81.1744 75.8516 83.1181 77.1891 85.0614C77.2447 85.1423 77.2851 85.2354 77.3448 85.3447V85.3447Z" fill="#03011B"/>
<path d="M45.9513 94.3678C46.0736 94.2201 46.0473 94.0329 46.0716 93.862C46.2971 92.3129 46.5135 90.7638 46.7319 89.2138C46.9159 87.8984 47.0959 86.5942 47.281 85.284C47.5236 83.5666 47.7677 81.85 48.013 80.134C48.1957 78.8395 48.3767 77.5444 48.556 76.2487C48.6295 75.7246 48.704 75.2008 48.7795 74.6774C48.7914 74.629 48.8063 74.5813 48.824 74.5347L63.412 83.0337V80.0884L77.3661 89.4192C82.0046 86.3163 86.6374 83.2176 91.2645 80.1228L91.2989 80.142C91.3043 80.1458 91.3085 80.1511 91.311 80.1572C91.3153 80.1713 91.3177 80.186 91.3181 80.2007L91.3241 82.9579C91.3241 82.9649 91.3302 82.972 91.3474 83.0085C91.4202 82.97 91.494 82.9346 91.5648 82.8941L96.6297 79.9417L105.655 74.6804L105.923 74.5286C105.971 74.8504 106.014 75.1408 106.055 75.4301C106.226 76.6382 106.394 77.846 106.56 79.0534C106.714 80.138 106.867 81.222 107.019 82.3053L107.484 85.6017C107.67 86.9251 107.856 88.2492 108.043 89.574C108.209 90.745 108.374 91.9159 108.539 93.0869C108.583 93.3996 108.617 93.7142 108.658 94.0269C108.668 94.0682 108.682 94.1086 108.699 94.1473V94.4124C108.338 94.5742 107.978 94.7402 107.614 94.897L101.143 97.6906C101.077 97.7189 101.01 97.7432 100.909 97.7837C101.415 92.8795 101.91 88.0097 102.412 83.1056C102.3 83.1592 102.228 83.1916 102.158 83.228C96.477 86.2162 90.7963 89.205 85.1156 92.1945C84.9604 92.2767 84.8152 92.3765 84.6828 92.492C82.3066 94.5763 79.9327 96.6626 77.5612 98.7509C77.4945 98.8086 77.4308 98.8683 77.359 98.929C74.9099 96.7752 72.4599 94.6218 70.0088 92.4687C69.8933 92.3676 69.7664 92.2804 69.6307 92.2087C63.9371 89.2118 58.243 86.2162 52.5481 83.2219C52.4793 83.1855 52.4065 83.1531 52.3054 83.1046C52.811 88.0087 53.3065 92.8785 53.809 97.7847C53.6836 97.7341 53.5957 97.7007 53.5057 97.6643L46.0049 94.4205C45.9841 94.4147 45.9627 94.4119 45.9412 94.4124L45.9513 94.3678Z" fill="#9B232E"/>
<path d="M77.3478 129.402C77.269 129.349 77.1941 129.289 77.1122 129.243C76.1685 128.715 75.2247 128.188 74.281 127.663C74.2041 127.62 74.1283 127.576 74.0383 127.524V127.242C74.0383 123.014 74.0383 118.786 74.0383 114.557C74.0395 114.39 73.9874 114.226 73.8897 114.09C71.5478 110.642 69.2093 107.192 66.8742 103.741C66.7886 103.614 66.6697 103.512 66.5304 103.448C62.9105 101.688 59.2908 99.9276 55.6715 98.1671C55.589 98.1349 55.5175 98.0796 55.4656 98.0078C55.4136 97.9361 55.3833 97.8509 55.3783 97.7624C55.2337 96.6626 55.075 95.5648 54.9182 94.466C54.7335 93.15 54.5481 91.8347 54.3621 90.52C54.2084 89.4283 54.0506 88.3376 53.8959 87.2458C53.8238 86.7373 53.753 86.228 53.6836 85.718C53.6836 85.6912 53.6863 85.6644 53.6917 85.6381C53.7433 85.6594 53.7928 85.6725 53.8333 85.6948C54.9031 86.2644 55.9708 86.8371 57.0437 87.4027C57.0946 87.4298 57.1384 87.4685 57.1718 87.5155C57.2051 87.5626 57.227 87.6168 57.2358 87.6738C57.7414 89.6519 58.2611 91.6279 58.7647 93.607C58.784 93.7012 58.826 93.7893 58.8869 93.8637C58.9479 93.9381 59.026 93.9965 59.1145 94.034C61.6667 95.3027 64.2159 96.5769 66.762 97.8565C66.8792 97.9163 67.0077 97.9508 67.1391 97.9577C67.9899 98.0096 68.8402 98.0649 69.6903 98.1236L72.7238 98.326C73.017 98.3452 73.3092 98.3695 73.6035 98.3776C73.7424 98.3792 73.8752 98.4352 73.9736 98.5334C75.0333 99.5094 76.0953 100.483 77.1597 101.453C77.2184 101.508 77.2801 101.555 77.3519 101.623C77.4125 101.573 77.4682 101.529 77.5207 101.481C78.5946 100.498 79.6674 99.5145 80.7393 98.5304C80.8393 98.435 80.9712 98.3802 81.1094 98.3766C82.1064 98.3169 83.1034 98.2471 84.1004 98.1813L86.5858 98.0214C86.9154 98.0002 87.2451 97.9698 87.5747 97.9536C87.7062 97.9471 87.8348 97.9126 87.9519 97.8525L94.395 94.6269C94.8359 94.4073 95.2747 94.1847 95.7166 93.9692C95.7664 93.9479 95.8102 93.9147 95.8442 93.8726C95.8782 93.8304 95.9014 93.7806 95.9118 93.7274C96.4173 91.7423 96.9391 89.7591 97.4457 87.774C97.4641 87.6791 97.5047 87.5898 97.5641 87.5136C97.6235 87.4373 97.7 87.376 97.7875 87.3349C98.7905 86.8118 99.7855 86.2735 100.784 85.7413C100.853 85.7039 100.926 85.6715 101.014 85.628C101.018 85.6977 101.018 85.7677 101.014 85.8374C100.83 87.1325 100.646 88.4273 100.461 89.7217C100.322 90.7031 100.188 91.6866 100.049 92.669C99.8964 93.753 99.7431 94.837 99.5894 95.9209C99.4973 96.5675 99.3992 97.214 99.3173 97.8626C99.3132 97.9233 99.2912 97.9814 99.2542 98.0297C99.2171 98.0779 99.1666 98.1141 99.1091 98.1337C97.9907 98.6734 96.8744 99.216 95.7601 99.7617C93.2241 100.996 90.6878 102.23 88.1511 103.465C88.027 103.526 87.9221 103.619 87.8477 103.736C85.5072 107.192 83.164 110.648 80.8181 114.102C80.7226 114.24 80.6737 114.405 80.6786 114.572C80.6826 118.764 80.6826 122.955 80.6786 127.147C80.6745 127.206 80.6745 127.265 80.6786 127.324C80.7019 127.478 80.6321 127.561 80.4996 127.634C79.541 128.162 78.5848 128.695 77.631 129.232C77.544 129.281 77.4661 129.348 77.3832 129.405L77.3478 129.402Z" fill="#9B232E"/>
<path d="M72.3123 119.471C72.2719 119.415 72.2294 119.358 72.192 119.299C69.4881 115.044 66.7836 110.79 64.0784 106.536C64.0002 106.412 63.9033 106.302 63.7912 106.209C61.5525 104.407 57.0478 100.684 57.1115 100.715C59.8956 102.008 62.68 103.301 65.4647 104.593C65.5709 104.641 65.6613 104.718 65.7256 104.816C67.8956 108.015 70.0669 111.213 72.2395 114.41C72.3141 114.51 72.3552 114.631 72.3568 114.755C72.3528 116.284 72.3528 117.813 72.3568 119.343V119.453L72.3123 119.471Z" fill="#9B232E"/>
<path d="M57.1185 100.693L68.1422 121.099L70.8066 123.95L72.3689 119.445V114.389L65.7539 104.554L57.1185 100.693Z" fill="#9B232E"/>
<path d="M59.0519 88.1301C59.1621 88.1848 59.2339 88.2182 59.3047 88.2546C62.593 89.9847 65.8813 91.7159 69.1696 93.4481C69.2799 93.5057 69.3819 93.5778 69.4729 93.6626C70.3756 94.5146 71.2772 95.3688 72.1778 96.2255C72.2393 96.2767 72.3041 96.3236 72.3719 96.3661L72.3355 96.4248C72.2738 96.4299 72.2122 96.439 72.1515 96.439C70.4534 96.439 68.756 96.439 67.0593 96.439C66.9425 96.4392 66.8277 96.4085 66.7266 96.3499C64.7157 95.2208 62.7035 94.094 60.69 92.9695C60.6378 92.9461 60.591 92.9121 60.5527 92.8696C60.5144 92.8271 60.4854 92.777 60.4675 92.7227C60.0132 91.2481 59.5558 89.775 59.0954 88.3031C59.0842 88.2607 59.0761 88.2182 59.0519 88.1301ZM67.9946 94.5378C67.9765 94.5092 67.9566 94.4818 67.9349 94.4559C67.5305 94.0754 67.1381 93.695 66.7367 93.3176C66.6814 93.2696 66.6203 93.2288 66.5547 93.1962C65.0097 92.3814 63.4643 91.5679 61.9185 90.7557C61.87 90.7304 61.8174 90.7132 61.7396 90.6809C61.7557 90.7436 61.7628 90.782 61.7729 90.8104C61.964 91.4276 62.1602 92.0427 62.3452 92.6609C62.3627 92.7125 62.391 92.7597 62.4281 92.7995C62.4652 92.8393 62.5104 92.8707 62.5606 92.8916C63.4963 93.4137 64.4313 93.9371 65.3656 94.4619C65.4665 94.5207 65.5815 94.5508 65.6982 94.549C66.396 94.549 67.0937 94.549 67.7903 94.549C67.849 94.5439 67.9066 94.5439 67.9966 94.5378H67.9946Z" fill="#9B232E"/>
<path d="M95.661 88.1848C95.57 88.4772 95.48 88.7706 95.389 89.064C95.0108 90.2782 94.634 91.4923 94.2585 92.7065C94.2432 92.7621 94.2164 92.8139 94.1798 92.8585C94.1432 92.9031 94.0977 92.9396 94.0462 92.9655C92.0185 94.0967 89.9934 95.2299 87.9711 96.3651C87.8819 96.4131 87.7822 96.4385 87.6809 96.439C85.9761 96.443 84.2713 96.443 82.5665 96.439H82.3511C82.4269 96.355 82.4663 96.3064 82.5108 96.2639C83.433 95.387 84.3555 94.5102 85.2784 93.6333C85.354 93.5639 85.4383 93.5047 85.5292 93.4572C88.837 91.7136 92.1455 89.9719 95.4547 88.2323C95.5124 88.202 95.573 88.1757 95.6317 88.1473L95.661 88.1848ZM86.7213 94.5186C86.7542 94.5303 86.788 94.5391 86.8224 94.5449C87.5869 94.5449 88.3503 94.5449 89.1147 94.5449C89.1862 94.5405 89.2556 94.519 89.317 94.4822C90.2796 93.9425 91.2412 93.4053 92.2018 92.8704C92.2442 92.8497 92.2819 92.8204 92.3123 92.7843C92.3428 92.7482 92.3654 92.7062 92.3788 92.6609C92.5638 92.0539 92.7529 91.4549 92.939 90.8508C92.9502 90.7955 92.9566 90.7393 92.9582 90.6829C92.857 90.7345 92.7751 90.7709 92.6983 90.8114C91.2938 91.55 89.8923 92.2926 88.4858 93.0252C88.1909 93.1735 87.921 93.367 87.686 93.5989C87.3806 93.9044 87.0611 94.1958 86.7213 94.5186V94.5186Z" fill="#9B232E"/>
<path d="M70.7874 123.938C70.7318 123.886 70.6863 123.849 70.6509 123.808C69.8366 122.909 69.0226 122.011 68.209 121.114C68.1697 121.076 68.1413 121.029 68.1269 120.977C68.1124 120.925 68.1125 120.87 68.127 120.818C68.5511 118.894 68.9717 116.97 69.389 115.045C69.3981 115.002 69.4132 114.962 69.4325 114.893C69.4687 114.93 69.5025 114.969 69.5336 115.01C70.4598 116.451 71.3854 117.892 72.3102 119.333C72.3414 119.376 72.3606 119.427 72.3657 119.481C72.3709 119.534 72.3619 119.588 72.3396 119.636C71.9594 120.678 71.5862 121.723 71.2111 122.766C71.0837 123.119 70.9583 123.474 70.8309 123.823C70.8238 123.857 70.8087 123.886 70.7874 123.938Z" fill="#9B232E"/>
<path d="M61.7092 80.4476L49.7491 73.1303L59.5645 55.2388L59.611 55.2438C59.611 55.3258 59.611 55.4087 59.611 55.4907C59.611 59.5419 59.611 63.5935 59.611 67.6454C59.6053 67.7459 59.6203 67.8466 59.6551 67.9411C59.6898 68.0356 59.7437 68.122 59.8132 68.1948C60.242 68.6592 60.6545 69.1388 61.0731 69.6113C61.1065 69.6487 61.1368 69.6902 61.1601 69.7195C61.1755 69.7173 61.1905 69.7128 61.2046 69.7064C61.2105 69.7027 61.2148 69.6969 61.2167 69.6902C61.2215 69.6764 61.2249 69.6622 61.2268 69.6477C61.2268 69.6265 61.2268 69.6042 61.2268 69.5819V64.3095C61.2259 64.3024 61.2259 64.2953 61.2268 64.2882C61.2268 64.2822 61.2349 64.2761 61.238 64.27C61.241 64.264 61.2491 64.2599 61.2552 64.2589C61.2587 64.2589 61.2623 64.2596 61.2656 64.261C61.2689 64.2623 61.2719 64.2644 61.2744 64.267C66.4663 71.9249 71.6506 79.5828 76.827 87.2407C76.8569 87.28 76.8703 87.3294 76.8645 87.3783L62.1703 76.6928C62.0691 77.3373 62.0125 77.9535 61.9367 78.5667C61.8608 79.1798 61.7891 79.7889 61.7092 80.4476Z" fill="#9B232E"/>
<path d="M92.5608 76.6868L77.8595 87.3784C77.8483 87.3663 77.8423 87.3622 77.8403 87.3571C77.8388 87.3538 77.838 87.3502 77.838 87.3465C77.838 87.3429 77.8388 87.3393 77.8403 87.3359L93.3444 64.3925C93.3768 64.3449 93.4132 64.3004 93.4455 64.2559C93.4607 64.262 93.4688 64.263 93.4738 64.2681C93.4795 64.2718 93.4835 64.2776 93.485 64.2842C93.4886 64.2985 93.4906 64.3131 93.491 64.3277L93.4971 69.6902C93.501 69.704 93.5065 69.7172 93.5133 69.7297C93.5524 69.7038 93.5892 69.6747 93.6235 69.6427C94.0917 69.1156 94.5578 68.5854 95.027 68.0582C95.0581 68.0276 95.0823 67.9906 95.0978 67.9497C95.1134 67.9088 95.1199 67.8651 95.117 67.8215C95.1119 67.7628 95.117 67.7041 95.117 67.6454V55.2773C95.128 55.2724 95.1396 55.2687 95.1514 55.2661C95.1548 55.266 95.1583 55.2666 95.1614 55.268C95.1646 55.2694 95.1673 55.2716 95.1695 55.2742C95.1876 55.2969 95.2038 55.3209 95.2181 55.3461C98.4666 61.2657 101.719 67.1938 104.976 73.1303L93.0168 80.4476C92.8621 79.1819 92.7145 77.9505 92.5608 76.6868Z" fill="#9B232E"/>
<path d="M77.3448 85.3447C77.2852 85.2354 77.2437 85.1423 77.1891 85.0614C75.8524 83.1167 74.5143 81.1731 73.1748 79.2304L61.1804 61.8155C61.1151 61.7277 61.0796 61.6213 61.0793 61.5119C61.0833 59.4884 61.0833 57.4648 61.0793 55.4412C61.0793 55.3997 61.0843 55.3572 61.0894 55.2813C61.1662 55.338 61.2249 55.3754 61.2785 55.4199L67.1432 60.3028C69.295 62.0951 71.4474 63.8863 73.6005 65.6765C73.7263 65.7769 73.8088 65.9217 73.831 66.0812C74.1344 67.7567 74.4559 69.4312 74.7694 71.1068C75.0438 72.5732 75.3181 74.0389 75.5925 75.504C75.8621 76.9475 76.1338 78.3913 76.4075 79.8355C76.7081 81.4307 77.0071 83.0263 77.3044 84.6223C77.3147 84.6987 77.3424 84.7717 77.3853 84.8358C77.4308 84.6051 77.4783 84.3754 77.5218 84.1457L78.7473 77.6035C79.1936 75.2204 79.6392 72.8376 80.0841 70.4552C80.3642 68.9607 80.6463 67.4663 80.9213 65.9709C80.9438 65.8643 81.006 65.7702 81.0952 65.7078L84.06 63.2381L93.4314 55.4371L93.6519 55.2601V55.5262C93.6519 57.4971 93.6519 59.4681 93.6519 61.4391C93.653 61.5845 93.6072 61.7264 93.5214 61.8438C88.1912 69.5786 82.8631 77.3148 77.537 85.0523C77.4854 85.1272 77.4631 85.2233 77.4187 85.3042C77.4106 85.3275 77.3681 85.3366 77.3448 85.3447ZM61.0742 55.2864L77.3297 68.7027L93.6812 55.2864V61.9966L77.3297 85.3366L61.0742 61.8084V55.2864Z" fill="#9B232E"/>
<path d="M74.1718 78.7488L74.2901 78.9057L74.2516 78.9279L74.1758 78.7448L74.1718 78.7488Z" fill="#03011B"/>
<path d="M97.4477 100.693L86.424 121.099L83.7596 123.95L82.1984 119.445V114.389L88.8124 104.554L97.4477 100.693Z" fill="#9B232E"/>
<path d="M28.4298 115.312L29.2387 114.849C29.3661 115.081 29.4949 115.312 29.625 115.542L34.1944 112.841C34.0772 112.639 33.9609 112.424 33.8466 112.215L34.6555 111.751C35.8037 113.853 37.1106 115.863 38.5647 117.766L37.5758 118.543C37.3061 118.193 37.0422 117.838 36.784 117.478L37.0439 117.286C36.3988 116.393 35.7799 115.469 35.1874 114.516L33.338 115.708C33.6622 116.23 33.9942 116.744 34.334 117.25L34.5989 117.065C34.8598 117.453 35.1251 117.835 35.3947 118.212L34.1409 119.13C33.8638 118.742 33.5911 118.348 33.3228 117.95L33.5776 117.772C33.2318 117.258 32.8948 116.735 32.5665 116.203L30.7262 117.389C31.3807 118.443 32.0649 119.465 32.7788 120.453L33.0377 120.261C33.3215 120.653 33.6097 121.041 33.9022 121.423L32.9123 122.2C31.2453 120.021 29.7468 117.719 28.4298 115.312V115.312Z" fill="#03011B"/>
<path d="M34.2117 122.149L34.9033 121.59C35.3293 122.13 35.7638 122.659 36.2067 123.177L35.8022 123.526C35.8427 123.821 35.8855 124.117 35.9306 124.412C36.4794 125.034 37.0402 125.641 37.6132 126.233C37.9017 126.301 38.1899 126.363 38.4778 126.419L39.3251 125.567C39.2685 125.282 39.2159 124.998 39.1643 124.714C38.3554 123.877 37.5691 123.007 36.8053 122.104C36.7379 121.466 36.6803 120.829 36.6324 120.194L38.1491 118.969C38.7363 119.141 39.3217 119.299 39.9055 119.443C40.8344 120.546 41.8045 121.595 42.8156 122.589C42.9107 123.18 43.0179 123.771 43.1372 124.363L42.5022 125.051C42.0411 124.624 41.5867 124.186 41.1391 123.736L41.5436 123.331C41.4998 123.054 41.459 122.776 41.4213 122.5C40.9035 121.965 40.398 121.417 39.9045 120.856C39.6305 120.796 39.3575 120.733 39.0834 120.667L38.1734 121.464C38.199 121.753 38.2267 122.043 38.2563 122.334C39.0208 123.2 39.8098 124.033 40.6234 124.834C40.7401 125.446 40.8692 126.059 41.0107 126.672L39.7104 128.082C39.0747 127.977 38.4363 127.857 37.7952 127.723C36.6371 126.583 35.5248 125.382 34.4584 124.118C34.3613 123.462 34.2791 122.806 34.2117 122.149Z" fill="#03011B"/>
<path d="M40.6133 128.91L43.9703 125.109C44.5696 125.166 45.1662 125.21 45.7601 125.241C46.8387 126.134 47.9509 126.973 49.0969 127.758C49.283 128.315 49.4812 128.872 49.6915 129.427C49.4805 129.749 49.2695 130.071 49.0585 130.392C48.5367 130.054 48.021 129.709 47.5114 129.357L47.9654 128.716C47.8795 128.454 47.7966 128.193 47.7157 127.931C47.1252 127.507 46.5431 127.068 45.9694 126.616C45.693 126.609 45.416 126.599 45.1382 126.585L42.3838 129.943C42.4694 130.222 42.5574 130.5 42.6477 130.777C43.2814 131.279 43.9252 131.764 44.5791 132.233C44.8713 132.244 45.1635 132.252 45.4537 132.258L45.8814 131.651C46.4207 132.026 46.9644 132.39 47.5124 132.743C47.3102 133.049 47.1097 133.354 46.9108 133.66C46.2717 133.67 45.6283 133.668 44.9805 133.653C43.668 132.754 42.3922 131.792 41.1532 130.768C40.9618 130.15 40.7818 129.531 40.6133 128.91Z" fill="#03011B"/>
<path d="M46.9543 134.945L47.4599 134.157C47.6065 134.249 47.7532 134.339 47.9008 134.429C49.5962 133.386 51.2282 132.281 52.7969 131.114C52.5946 131.003 52.3904 130.89 52.1841 130.775L52.6523 129.966C53.9607 130.701 55.2991 131.373 56.6676 131.982L56.2763 132.829C56.0447 132.728 55.8142 132.622 55.5846 132.514C55.5354 134.443 55.5691 136.387 55.6858 138.347C55.8496 138.415 56.0137 138.482 56.1782 138.55L55.8223 139.412C54.7868 139.002 53.7629 138.561 52.7503 138.089L53.1548 137.249C53.357 137.344 53.5593 137.437 53.7615 137.528C53.746 137.062 53.7359 136.597 53.7312 136.133C52.7645 135.682 51.8103 135.202 50.8686 134.692C50.4863 134.962 50.1011 135.228 49.7128 135.491C49.9083 135.6 50.1041 135.708 50.3003 135.814L49.8463 136.63C48.8675 136.097 47.9035 135.536 46.9543 134.945ZM53.7291 135.403C53.7372 134.434 53.7659 133.469 53.8151 132.509C53.0527 133.11 52.2737 133.698 51.4783 134.271C52.2232 134.668 52.9748 135.045 53.7332 135.403H53.7291Z" fill="#03011B"/>
<path d="M56.0305 139.491L56.3824 138.628C56.6055 138.715 56.8293 138.8 57.0538 138.885L58.9942 133.946C58.792 133.869 58.5898 133.792 58.3875 133.713L58.7394 132.849C60.511 133.541 62.3206 134.131 64.1593 134.617C64.5138 135.076 64.8802 135.53 65.2584 135.98C65.0993 136.623 64.9402 137.267 64.7811 137.909C64.2149 138.143 63.6419 138.367 63.0621 138.581C61.902 138.276 60.7526 137.931 59.6141 137.548L58.9113 139.544C59.1378 139.621 59.3653 139.695 59.5928 139.769C59.4917 140.063 59.3906 140.358 59.2946 140.651C58.1951 140.298 57.1071 139.912 56.0305 139.491ZM62.2643 137.397C62.5394 137.306 62.8127 137.211 63.0844 137.113C63.1997 136.708 63.3153 136.304 63.4312 135.899C63.2563 135.681 63.0824 135.462 62.9125 135.241C62.1588 135.023 61.4112 134.79 60.6697 134.542L59.9205 136.667C60.6964 136.929 61.4777 137.173 62.2643 137.397Z" fill="#03011B"/>
<path d="M64.0288 141.957C64.1026 141.654 64.1754 141.35 64.2492 141.053C64.4818 141.107 64.7151 141.159 64.949 141.21L66.132 136.05C65.9207 136.003 65.7094 135.957 65.499 135.908C65.5732 135.606 65.6463 135.305 65.7185 135.003C67.8697 135.498 70.0506 135.854 72.2475 136.068C72.2051 136.483 72.1623 136.897 72.1191 137.312C71.7066 137.272 71.2947 137.227 70.8835 137.177C70.8976 137.076 70.9108 136.964 70.9249 136.858C69.9037 136.735 68.8864 136.581 67.8732 136.397C67.7344 137.114 67.5962 137.831 67.4587 138.55C68.0141 138.651 68.5706 138.743 69.1281 138.827C69.1453 138.721 69.1615 138.616 69.1787 138.509C69.6067 138.573 70.0351 138.632 70.4638 138.686C70.3964 139.198 70.329 139.71 70.2616 140.222C69.8207 140.167 69.3789 140.106 68.939 140.04L68.9876 139.737C68.4206 139.652 67.8544 139.558 67.2888 139.455C67.154 140.17 67.0168 140.884 66.8773 141.598C67.9963 141.801 69.1214 141.969 70.2525 142.104C70.2667 142.003 70.2798 141.892 70.294 141.785C70.7429 141.84 71.1926 141.889 71.6429 141.933C71.6004 142.348 71.5576 142.763 71.5144 143.178C68.9956 142.932 66.4952 142.525 64.0288 141.957V141.957Z" fill="#03011B"/>
<path d="M76.639 143.456C76.639 143.146 76.6461 142.837 76.6502 142.527C76.8888 142.527 77.1274 142.527 77.3671 142.527C77.3671 140.765 77.3644 139.002 77.359 137.24C77.144 137.24 76.9279 137.24 76.7108 137.24C76.7108 136.93 76.7179 136.62 76.722 136.311C78.6204 136.332 80.5185 136.248 82.4077 136.061C82.9072 136.366 83.4155 136.662 83.9326 136.951C84.0054 137.498 84.0785 138.044 84.152 138.589C83.8506 138.871 83.5446 139.149 83.2338 139.425C83.5999 139.627 83.9706 139.827 84.3461 140.023C84.4371 140.705 84.5285 141.388 84.6201 142.071C84.8581 142.04 85.094 142.009 85.328 141.976C85.3738 142.282 85.419 142.589 85.4634 142.895C84.5635 143.021 83.6612 143.125 82.7566 143.209C82.6676 142.296 82.5783 141.382 82.4886 140.468C82.2308 140.322 81.9759 140.176 81.7221 140.027C80.897 140.094 80.0703 140.142 79.2418 140.169C79.2708 140.944 79.2994 141.72 79.3277 142.496C79.5677 142.488 79.8067 142.478 80.0446 142.466C80.0601 142.776 80.0756 143.085 80.0911 143.394C78.9404 143.448 77.7897 143.469 76.639 143.456ZM81.6463 139.111C81.8681 138.929 82.0868 138.745 82.3026 138.56L82.2014 137.51C81.9574 137.367 81.7161 137.222 81.4775 137.077C80.6975 137.139 79.9169 137.183 79.1356 137.21L79.2114 139.251C80.0231 139.223 80.8347 139.176 81.6463 139.111Z" fill="#03011B"/>
<path d="M85.7051 142.861L85.5655 141.941C85.8021 141.908 86.0381 141.874 86.2734 141.84L85.4118 136.619C85.1985 136.652 84.9851 136.684 84.7708 136.714L84.6312 135.796C86.8155 135.482 88.9771 135.028 91.1027 134.435C91.22 134.835 91.3376 135.236 91.4556 135.638C91.0565 135.749 90.6561 135.856 90.2543 135.958C90.226 135.856 90.1987 135.755 90.1714 135.647C89.1737 135.9 88.1689 136.123 87.1571 136.316L87.5909 138.466C88.145 138.359 88.6974 138.245 89.2482 138.123C89.2229 138.022 89.1986 137.913 89.1744 137.809C89.5957 137.715 90.0163 137.614 90.4363 137.506L90.8307 139.007C90.3979 139.114 89.9644 139.216 89.5303 139.311C89.506 139.209 89.4828 139.108 89.4585 139.007C88.8983 139.133 88.3361 139.249 87.7719 139.356C87.9162 140.07 88.0601 140.783 88.2037 141.495C89.322 141.282 90.4343 141.035 91.5405 140.755C91.5132 140.654 91.4859 140.553 91.4576 140.444C91.8964 140.333 92.3346 140.216 92.7721 140.095C92.8894 140.495 93.007 140.896 93.125 141.297C90.6881 141.978 88.2096 142.501 85.7051 142.861Z" fill="#03011B"/>
<path d="M93.3596 141.236C93.2706 140.939 93.1826 140.641 93.0936 140.344C93.2574 140.297 93.4223 140.25 93.5861 140.201C93.9069 138.265 94.1429 136.336 94.2939 134.413C94.0741 134.489 93.8544 134.563 93.6346 134.635C93.5328 134.342 93.4317 134.048 93.3312 133.755C94.7469 133.287 96.1416 132.756 97.5154 132.16L97.8997 133.01C97.6671 133.111 97.4342 133.211 97.201 133.308C98.6341 134.628 100.137 135.897 101.709 137.113C101.868 137.037 102.028 136.961 102.188 136.883L102.608 137.717C101.603 138.205 100.585 138.662 99.555 139.088C99.4316 138.803 99.3086 138.517 99.1859 138.231C99.3881 138.146 99.5934 138.06 99.8017 137.972C99.4363 137.673 99.076 137.369 98.7207 137.061C97.7359 137.466 96.7406 137.844 95.7348 138.196C95.6869 138.654 95.635 139.113 95.5791 139.573C95.7901 139.505 96.0007 139.434 96.211 139.358L96.5296 140.233C95.4813 140.6 94.4247 140.934 93.3596 141.236ZM98.1656 136.582C97.4342 135.93 96.7207 135.267 96.025 134.592C95.9765 135.549 95.909 136.51 95.8228 137.474C96.6088 137.195 97.3897 136.897 98.1656 136.582Z" fill="#03011B"/>
<path d="M102.807 137.618L102.384 136.785C102.601 136.684 102.815 136.573 103.029 136.463L100.562 131.757C100.368 131.858 100.173 131.953 99.9787 132.048L99.5551 131.215C100.462 130.771 101.356 130.297 102.237 129.793L102.71 130.602C102.521 130.71 102.331 130.817 102.141 130.923C103.017 132.462 103.895 134.001 104.776 135.541C105.795 134.976 106.796 134.377 107.78 133.744L107.52 133.349C107.91 133.098 108.296 132.842 108.678 132.581L109.487 133.739C107.355 135.189 105.123 136.485 102.807 137.618V137.618Z" fill="#03011B"/>
<path d="M109.685 133.599L109.148 132.833C109.35 132.698 109.549 132.559 109.744 132.416L106.632 128.098C106.453 128.224 106.273 128.351 106.093 128.475L105.556 127.709C106.396 127.131 107.219 126.524 108.025 125.888L108.608 126.619C108.435 126.754 108.261 126.889 108.086 127.023C109.174 128.426 110.263 129.827 111.352 131.228C111.546 131.079 111.738 130.929 111.93 130.778L112.513 131.51C111.589 132.238 110.646 132.935 109.685 133.599Z" fill="#03011B"/>
<path d="M109.078 126.846C108.783 126.481 108.488 126.116 108.193 125.749C110.292 124.074 112.24 122.217 114.015 120.201L115.064 121.14C114.773 121.472 114.478 121.798 114.178 122.119L113.834 121.794C113.402 122.258 112.964 122.711 112.519 123.154L116.254 126.949C116.43 126.775 116.605 126.599 116.779 126.421C117.002 126.64 117.223 126.859 117.444 127.079C116.603 127.937 115.737 128.762 114.847 129.553C114.639 129.32 114.432 129.087 114.224 128.854C114.408 128.691 114.591 128.527 114.772 128.36C113.575 127.05 112.377 125.74 111.178 124.43C110.713 124.856 110.241 125.271 109.763 125.676L110.066 126.037C109.739 126.312 109.41 126.582 109.078 126.846Z" fill="#03011B"/>
<path d="M114.861 120.654L114.161 120.034C115.049 119.015 115.898 117.948 116.709 116.833L117.458 117.392C117.255 117.669 117.053 117.942 116.851 118.213C117.727 118.049 118.609 117.855 119.497 117.631C119.402 116.716 119.284 115.811 119.142 114.914C118.96 115.202 118.774 115.488 118.587 115.77L117.818 115.241C118.559 114.122 119.262 112.959 119.925 111.751L120.734 112.215C120.641 112.385 120.547 112.553 120.452 112.721C120.676 114.263 120.833 115.829 120.922 117.419L122.944 118.811C123.087 118.596 123.229 118.38 123.37 118.161L124.213 118.725C123.539 119.772 122.835 120.783 122.101 121.76L121.292 121.142C121.441 120.94 121.589 120.737 121.735 120.535L119.766 119.066C118.303 119.491 116.818 119.836 115.317 120.101C115.169 120.29 115.017 120.475 114.861 120.654Z" fill="#03011B"/>
<path d="M10.6526 102.283L11.5626 102.081C11.6415 102.435 11.7227 102.787 11.8063 103.138L16.945 101.902C16.8682 101.578 16.7934 101.253 16.7206 100.926L17.6306 100.724C18.349 103.96 19.3031 107.138 20.4851 110.235L19.3132 110.706C19.0988 110.147 18.8909 109.581 18.6893 109.009L18.9927 108.898C18.4911 107.476 18.032 106.016 17.6154 104.52L15.5102 105.127C15.7367 105.941 15.9753 106.743 16.2261 107.535L16.5295 107.434C16.7229 108.041 16.9225 108.643 17.1281 109.239L15.672 109.768C15.461 109.161 15.2567 108.545 15.0592 107.92L15.3535 107.819C15.0987 107.015 14.8567 106.201 14.6275 105.376L12.5384 105.977C12.9901 107.601 13.4879 109.186 14.0319 110.733L14.3352 110.621C14.5516 111.236 14.7748 111.843 15.0046 112.442L13.8438 112.91C12.5224 109.45 11.4558 105.898 10.6526 102.283V102.283Z" fill="#03011B"/>
<path d="M13.9642 113.231L14.8257 112.879C14.9477 113.195 15.0724 113.509 15.1998 113.822L20.0716 111.744C19.9553 111.457 19.84 111.167 19.7268 110.875L20.5883 110.524C21.0029 111.59 21.441 112.633 21.9028 113.654C21.3635 115.443 20.8916 117.273 20.4872 119.143C22.1958 119.782 23.9371 120.329 25.7038 120.784C26.2747 121.7 26.8666 122.594 27.4794 123.465L26.723 124.013C26.5558 123.777 26.391 123.538 26.2286 123.299L21.8806 126.358C22.0585 126.618 22.2365 126.876 22.4175 127.133L21.6611 127.681C20.7942 126.447 19.9641 125.174 19.1706 123.86L19.9604 123.364C20.1221 123.634 20.2849 123.899 20.4488 124.16L23.8483 121.963C22.0713 121.467 20.3214 120.879 18.6054 120.201C18.9741 118.304 19.4157 116.443 19.93 114.617L16.2797 116.348C16.4146 116.651 16.5531 116.952 16.6953 117.251L15.8601 117.662C15.1873 116.226 14.5554 114.748 13.9642 113.231Z" fill="#03011B"/>
<path d="M21.8482 127.942L22.6025 127.391C22.7839 127.646 22.9666 127.9 23.1506 128.152L27.3975 124.952C27.2276 124.721 27.0591 124.487 26.8919 124.251L27.6452 123.7C29.0984 125.747 30.684 127.697 32.3916 129.538C32.546 130.225 32.7145 130.912 32.8972 131.598L31.7192 132.771C31.2473 132.637 30.7717 132.494 30.2924 132.342C30.4178 132.828 30.5496 133.313 30.6878 133.798L29.3045 135.175C28.5879 134.954 27.87 134.718 27.1507 134.467C25.243 132.41 23.4717 130.23 21.8482 127.942V127.942ZM29.2782 130.555C29.6038 130.672 29.9294 130.786 30.255 130.898L31.0346 130.175C30.9557 129.845 30.8799 129.513 30.8071 129.18C30.133 128.415 29.473 127.63 28.8272 126.822L27.2337 128.119C27.897 128.953 28.5785 129.765 29.2782 130.555V130.555ZM26.8514 132.739C27.1838 132.874 27.5168 133.002 27.8505 133.125L28.8424 132.207C28.7561 131.861 28.6735 131.516 28.5947 131.172C27.8862 130.371 27.1949 129.548 26.5208 128.702L24.7007 130.181C25.3977 131.057 26.1136 131.91 26.8484 132.739H26.8514Z" fill="#03011B"/>
<path d="M29.2024 136.576L29.8556 135.907C30.072 136.119 30.2894 136.33 30.5078 136.537L34.1783 132.68C33.9761 132.488 33.7739 132.295 33.5777 132.099L34.2319 131.43C35.9715 133.139 37.8179 134.735 39.7599 136.21C40.0148 136.849 40.2844 137.486 40.5689 138.121L39.5901 139.467C39.104 139.42 38.6167 139.365 38.1279 139.303C38.3241 139.752 38.5263 140.2 38.7346 140.646C38.3302 141.207 37.924 141.769 37.5162 142.33C37.7582 142.503 38.0009 142.674 38.2442 142.842C38.0656 143.097 37.8863 143.351 37.7063 143.606C36.7821 142.967 35.872 142.303 34.9761 141.612L36.681 139.427C36.5461 139.109 36.413 138.789 36.2815 138.469C35.4652 137.819 34.6637 137.147 33.877 136.453L32.3238 138.21C32.5497 138.412 32.7758 138.609 33.0023 138.801L32.3956 139.509C31.3043 138.573 30.2398 137.595 29.2024 136.576ZM36.865 137.747C37.202 137.803 37.5391 137.856 37.8761 137.905L38.5304 137.068C38.4023 136.76 38.2772 136.452 38.1552 136.144C37.3766 135.525 36.6119 134.884 35.8609 134.221L34.4989 135.761C35.2721 136.447 36.0608 137.109 36.865 137.747Z" fill="#03011B"/>
<path d="M37.9561 143.777C38.134 143.521 38.3123 143.265 38.491 143.01C38.6649 143.129 38.8408 143.248 39.0158 143.366C40.9188 142.506 42.7631 141.576 44.5488 140.577C44.2981 140.428 44.049 140.276 43.8016 140.122C43.9694 139.859 44.138 139.596 44.3072 139.333C45.9068 140.325 47.5469 141.236 49.2275 142.065C49.0846 142.341 48.9423 142.618 48.8008 142.895C48.5176 142.754 48.2359 142.612 47.9554 142.467C47.9999 144.483 48.1294 146.514 48.3437 148.559C48.5412 148.649 48.7387 148.738 48.9363 148.826L48.5449 149.673C47.3032 149.122 46.077 148.532 44.8663 147.905L45.3082 147.081C45.5499 147.208 45.7926 147.331 46.0373 147.454C45.9988 146.966 45.9651 146.479 45.9361 145.992C44.7706 145.389 43.6226 144.749 42.4921 144.07C42.0607 144.301 41.6252 144.527 41.1857 144.749C41.4196 144.893 41.6556 145.035 41.8935 145.175L41.4051 145.972C40.2335 145.278 39.0838 144.546 37.9561 143.777ZM45.8997 145.235C45.8627 144.223 45.8458 143.211 45.8492 142.199C44.9762 142.721 44.0887 143.227 43.1868 143.717C44.0793 144.251 44.9836 144.757 45.8997 145.235Z" fill="#03011B"/>
<path d="M49.7704 149.058L51.8301 144.44C52.5184 144.352 53.2009 144.251 53.8777 144.137C55.4733 144.768 57.0912 145.331 58.7313 145.827C59.1803 146.33 59.6417 146.83 60.1156 147.325C60.0104 147.693 59.9049 148.062 59.7991 148.43C59.0663 148.228 58.3373 148.015 57.6119 147.793L57.8546 147.049C57.6463 146.812 57.4404 146.574 57.2368 146.335C56.3881 146.059 55.5455 145.766 54.7089 145.454C54.3968 145.514 54.0826 145.571 53.7665 145.626C53.2272 146.965 52.6879 148.302 52.1486 149.64C52.3596 149.895 52.573 150.148 52.7887 150.4C53.6967 150.737 54.6112 151.056 55.532 151.355C55.863 151.292 56.1916 151.228 56.5179 151.161C56.5937 150.928 56.6705 150.694 56.7464 150.461C57.5041 150.696 58.2652 150.918 59.0296 151.126L58.7262 152.176C58.0124 152.347 57.2914 152.507 56.5634 152.655C54.7318 152.102 52.9245 151.473 51.1415 150.768C50.6723 150.204 50.2153 149.634 49.7704 149.058Z" fill="#03011B"/>
<path d="M59.2946 153.422C59.3765 153.119 59.4574 152.824 59.5393 152.525C59.8224 152.598 60.1058 152.669 60.3896 152.739L61.7153 147.61C61.4544 147.546 61.1925 147.48 60.9316 147.408L61.1773 146.511C63.8494 147.201 66.5633 147.718 69.302 148.058L69.1382 149.298C68.6266 149.234 68.1169 149.164 67.6063 149.09C67.6235 148.983 67.6397 148.877 67.6569 148.772C66.3889 148.584 65.1273 148.358 63.8721 148.096L63.3999 150.242C64.0814 150.385 64.7653 150.517 65.4515 150.639C65.4717 150.537 65.491 150.428 65.5112 150.322C66.037 150.416 66.5645 150.503 67.0937 150.583C67.0107 151.093 66.9285 151.603 66.8469 152.113C66.3076 152.031 65.7684 151.942 65.2291 151.846C65.2473 151.745 65.2665 151.643 65.2857 151.542C64.59 151.419 63.8964 151.285 63.2047 151.137C63.047 151.848 62.8899 152.558 62.7335 153.268C64.0945 153.554 65.4637 153.798 66.8409 154.002C66.857 153.896 66.8732 153.79 66.8904 153.684C67.4378 153.765 67.9862 153.84 68.5356 153.909C68.481 154.322 68.4267 154.735 68.3728 155.149C65.3126 154.77 62.2802 154.193 59.2946 153.422V153.422Z" fill="#03011B"/>
<path d="M74.6046 155.656C74.6167 155.347 74.6292 155.037 74.642 154.727L75.2669 154.748C76.3907 153.015 77.4301 151.259 78.3853 149.479C78.0968 149.483 77.8087 149.486 77.5208 149.487C77.5208 149.178 77.5208 148.868 77.5208 148.558C79.3827 148.552 81.2419 148.465 83.0984 148.298L83.1863 149.224C82.8739 149.252 82.5614 149.278 82.248 149.301C83.3663 150.987 84.5656 152.64 85.8457 154.259C86.0601 154.233 86.2734 154.206 86.4868 154.178L86.6142 155.099C85.2727 155.274 83.9265 155.409 82.5756 155.503C82.5513 155.194 82.5274 154.885 82.5038 154.577C82.7735 154.557 83.0431 154.536 83.3127 154.513C83.0182 154.119 82.729 153.724 82.4452 153.327C81.1462 153.423 79.8445 153.483 78.5401 153.505C78.3021 153.927 78.0598 154.347 77.813 154.765C78.0827 154.765 78.3523 154.761 78.622 154.755L78.6402 155.683C77.2967 155.713 75.9515 155.704 74.6046 155.656ZM82.0083 152.712C81.4327 151.873 80.8775 151.028 80.343 150.175C79.8927 151.072 79.4208 151.964 78.9273 152.852C79.9567 152.826 80.9827 152.778 82.0053 152.709L82.0083 152.712Z" fill="#03011B"/>
<path d="M86.8821 155.064L86.7516 154.143C87.0408 154.105 87.33 154.065 87.6192 154.022L86.8103 148.793C86.5406 148.832 86.274 148.869 86.0104 148.904L85.88 147.984C88.2334 147.67 90.5674 147.224 92.8712 146.649C93.5244 146.852 94.1853 147.041 94.8541 147.219C95.0098 147.749 95.1652 148.278 95.3202 148.807C94.9886 149.151 94.6515 149.492 94.3091 149.83C94.7809 149.958 95.2548 150.08 95.7307 150.198C95.9127 150.819 96.0951 151.44 96.2778 152.061C95.7614 152.571 95.2332 153.077 94.6933 153.579C92.1192 154.219 89.5114 154.715 86.8821 155.064V155.064ZM92.3322 149.837C92.5776 149.613 92.8206 149.386 93.0613 149.158C92.9736 148.818 92.8863 148.476 92.7994 148.134C92.4819 148.041 92.1667 147.946 91.854 147.849C90.9035 148.067 89.9489 148.262 88.9903 148.435C89.1184 149.105 89.2465 149.774 89.3746 150.442C90.3648 150.264 91.3507 150.062 92.3322 149.837ZM93.0936 152.998C93.3545 152.774 93.6127 152.548 93.8682 152.32C93.7569 151.887 93.6461 151.452 93.5355 151.018C93.2039 150.925 92.8745 150.829 92.5476 150.731C91.5526 150.959 90.5526 151.163 89.5475 151.345C89.6938 152.108 89.8401 152.871 89.9863 153.635C91.0272 153.446 92.0629 153.234 93.0936 152.998Z" fill="#03011B"/>
<path d="M97.6783 151.654L97.4114 150.811C98.1731 150.581 98.9305 150.338 99.6834 150.08C99.7421 150.246 99.8017 150.413 99.8614 150.579C100.19 150.637 100.521 150.692 100.852 150.745C101.766 150.421 102.671 150.077 103.569 149.714C103.779 149.455 103.986 149.195 104.189 148.936L103.71 147.838C103.382 147.8 103.055 147.76 102.729 147.719C101.448 148.238 100.151 148.716 98.8361 149.151C98.1303 149.01 97.4316 148.858 96.7399 148.695C96.5438 148.078 96.348 147.46 96.1525 146.842C96.6115 146.335 97.0591 145.823 97.4953 145.307C99.1212 144.767 100.724 144.16 102.303 143.485C102.983 143.578 103.668 143.66 104.36 143.729C104.495 144.009 104.63 144.29 104.765 144.571C104.075 144.889 103.381 145.196 102.682 145.49C102.606 145.317 102.531 145.145 102.455 144.973C102.139 144.926 101.822 144.879 101.508 144.827C100.68 145.164 99.8452 145.481 99.0039 145.778C98.8078 146.023 98.6086 146.267 98.4063 146.51L98.8108 147.648C99.1293 147.717 99.4499 147.784 99.7714 147.85C101.056 147.394 102.326 146.897 103.581 146.359C104.289 146.44 105.001 146.507 105.72 146.561L106.548 148.281C106.119 148.869 105.678 149.452 105.223 150.032C103.46 150.786 101.671 151.466 99.8533 152.07C99.1206 151.945 98.3956 151.806 97.6783 151.654Z" fill="#03011B"/>
<path d="M105.246 143.688L104.621 142.428C107.577 141.013 110.411 139.354 113.093 137.47L113.914 138.617C113.479 138.922 113.041 139.221 112.599 139.514L112.333 139.122C111.695 139.547 111.049 139.958 110.397 140.355L113.216 144.866C113.467 144.713 113.718 144.557 113.969 144.4C114.138 144.662 114.307 144.924 114.475 145.186C113.267 145.945 112.039 146.663 110.789 147.34L110.334 146.525C110.593 146.384 110.851 146.242 111.108 146.099C110.223 144.563 109.339 143.027 108.454 141.491C107.78 141.867 107.103 142.229 106.422 142.578L106.643 142.996C106.18 143.232 105.714 143.463 105.246 143.688Z" fill="#03011B"/>
<path d="M117.522 143.149L116.975 142.392C117.217 142.22 117.458 142.046 117.698 141.87L114.527 137.595C114.306 137.757 114.084 137.916 113.861 138.074L113.314 137.316C115.296 135.911 117.187 134.381 118.976 132.737C119.657 132.593 120.339 132.434 121.023 132.259L122.184 133.45C122.049 133.923 121.905 134.397 121.751 134.873C122.233 134.754 122.716 134.627 123.2 134.493C123.683 134.989 124.167 135.485 124.651 135.982C124.866 135.771 125.081 135.558 125.295 135.342L125.957 136.003C125.148 136.819 124.321 137.609 123.475 138.374L121.614 136.319C121.274 136.4 120.933 136.476 120.593 136.549C119.804 137.242 119.002 137.911 118.185 138.558L119.648 140.39C119.882 140.205 120.115 140.018 120.346 139.829L120.94 140.552C119.825 141.459 118.686 142.324 117.522 143.149ZM119.978 135.855C120.094 135.534 120.206 135.212 120.315 134.889L119.607 134.102C119.279 134.176 118.951 134.246 118.624 134.312C117.872 134.973 117.106 135.614 116.325 136.235C116.754 136.77 117.182 137.305 117.609 137.842C118.411 137.2 119.2 136.538 119.978 135.855V135.855Z" fill="#03011B"/>
<path d="M126.169 135.785L125.504 135.127C125.656 134.972 125.807 134.816 125.957 134.659C125.458 132.62 124.88 130.622 124.224 128.664C124.027 128.893 123.828 129.12 123.626 129.346L122.932 128.717C124.245 127.246 125.482 125.709 126.637 124.112L127.386 124.67C127.189 124.94 126.99 125.21 126.79 125.479C128.821 125.724 130.886 125.874 132.985 125.929C133.114 125.735 133.243 125.541 133.37 125.346L134.144 125.869C133.341 127.097 132.505 128.286 131.637 129.438L130.898 128.866C131.072 128.635 131.244 128.403 131.416 128.169C130.918 128.138 130.423 128.102 129.929 128.061C129.094 129.17 128.228 130.244 127.333 131.282C127.48 131.754 127.622 132.229 127.76 132.706C127.948 132.492 128.135 132.277 128.322 132.062L129.029 132.678C128.104 133.752 127.15 134.787 126.169 135.785ZM129.161 127.987C128.135 127.879 127.119 127.747 126.112 127.592C126.465 128.558 126.799 129.536 127.115 130.526C127.816 129.702 128.498 128.855 129.161 127.987Z" fill="#03011B"/>
<path d="M133.767 124.493L129.539 121.715C129.587 120.978 129.623 120.242 129.645 119.508C130.598 117.889 131.487 116.203 132.311 114.449C132.905 114.01 133.497 113.552 134.086 113.076L135.134 113.55C134.79 114.348 134.433 115.132 134.063 115.904L133.364 115.553C133.085 115.755 132.805 115.953 132.524 116.148C132.079 117.043 131.616 117.92 131.136 118.778C131.136 119.122 131.131 119.465 131.12 119.807L134.829 122.043C135.127 121.85 135.425 121.653 135.721 121.452C136.242 120.52 136.744 119.568 137.228 118.596C137.228 118.228 137.228 117.861 137.228 117.492L136.57 117.162C136.956 116.353 137.327 115.534 137.682 114.704L138.677 115.154C138.708 115.971 138.726 116.789 138.731 117.61C137.814 119.566 136.822 121.448 135.756 123.256C135.097 123.691 134.434 124.103 133.767 124.493Z" fill="#03011B"/>
<path d="M134.764 112.365L133.479 111.806C134.954 108.219 136.118 104.511 136.956 100.724L138.321 101.027C138.179 101.661 138.03 102.29 137.874 102.912L137.419 102.796C137.193 103.696 136.951 104.583 136.694 105.456L141.75 106.996C141.849 106.659 141.946 106.319 142.041 105.977L142.934 106.234C142.475 107.88 141.969 109.485 141.417 111.05L140.552 110.733C140.666 110.407 140.778 110.082 140.888 109.755L135.9 108.001C135.613 108.857 135.31 109.7 134.99 110.53L135.427 110.706C135.212 111.263 134.991 111.816 134.764 112.365Z" fill="#03011B"/>
</g>
<defs>
<clipPath id="clip0_8_511">
<rect width="154" height="168" fill="white"/>
</clipPath>
</defs>
</svg>
